M48
; DRILL file {KiCad (5.1.10-1-10_14)} date Wednesday, December 01, 2021 at 11:12:01 PM
; FORMAT={-:-/ absolute / metric / decimal}
; #@! TF.CreationDate,2021-12-01T23:12:01+09:00
; #@! TF.GenerationSoftware,Kicad,Pcbnew,(5.1.10-1-10_14)
FMAT,2
METRIC
T1C0.305
T2C0.800
%
G90
G05
T1
X-6.75Y-8.1
X-6.75Y-9.37
X-6.75Y-13.18
X-6.75Y-14.45
X-6.75Y-15.72
X-6.75Y-16.99
X-6.75Y-18.26
X-6.0Y-10.64
X-6.0Y-11.91
X-4.45Y-17.5
X0.0Y-13.0
X4.45Y-17.7
X5.6Y-17.7
X6.75Y-8.1
X6.75Y-10.64
X6.75Y-11.91
X6.75Y-13.18
X6.75Y-14.45
X6.75Y-15.72
X6.75Y-16.99
X6.75Y-18.26
T2
X-11.43Y-1.27
X-11.43Y-3.81
X-11.43Y-6.35
X-11.43Y-8.89
X-11.43Y-11.43
X-11.43Y-13.97
X-11.43Y-16.51
X-11.43Y-19.05
X-11.43Y-21.59
X-11.43Y-24.13
X-11.43Y-26.67
X-11.43Y-29.21
X-11.43Y-31.75
X-11.43Y-34.29
X-11.43Y-36.83
X11.43Y-1.27
X11.43Y-3.81
X11.43Y-6.35
X11.43Y-8.89
X11.43Y-11.43
X11.43Y-13.97
X11.43Y-16.51
X11.43Y-19.05
X11.43Y-21.59
X11.43Y-24.13
X11.43Y-26.67
X11.43Y-29.21
X11.43Y-31.75
X11.43Y-34.29
X11.43Y-36.83
T0
M30
