G04 #@! TF.GenerationSoftware,KiCad,Pcbnew,(5.1.10-1-10_14)*
G04 #@! TF.CreationDate,2021-12-01T23:11:49+09:00*
G04 #@! TF.ProjectId,DIP-ESP32,4449502d-4553-4503-9332-2e6b69636164,V1.0*
G04 #@! TF.SameCoordinates,Original*
G04 #@! TF.FileFunction,Copper,L2,Bot*
G04 #@! TF.FilePolarity,Positive*
%FSLAX46Y46*%
G04 Gerber Fmt 4.6, Leading zero omitted, Abs format (unit mm)*
G04 Created by KiCad (PCBNEW (5.1.10-1-10_14)) date 2021-12-01 23:11:49*
%MOMM*%
%LPD*%
G01*
G04 APERTURE LIST*
G04 #@! TA.AperFunction,SMDPad,CuDef*
%ADD10R,1.200000X1.800000*%
G04 #@! TD*
G04 #@! TA.AperFunction,SMDPad,CuDef*
%ADD11C,0.100000*%
G04 #@! TD*
G04 #@! TA.AperFunction,ComponentPad*
%ADD12C,1.400000*%
G04 #@! TD*
G04 #@! TA.AperFunction,ComponentPad*
%ADD13R,1.400000X1.400000*%
G04 #@! TD*
G04 #@! TA.AperFunction,ViaPad*
%ADD14C,0.609600*%
G04 #@! TD*
G04 #@! TA.AperFunction,Conductor*
%ADD15C,0.508000*%
G04 #@! TD*
G04 #@! TA.AperFunction,Conductor*
%ADD16C,0.254000*%
G04 #@! TD*
G04 APERTURE END LIST*
D10*
X-4650000Y-13900000D03*
X-2050000Y-13900000D03*
G04 #@! TA.AperFunction,SMDPad,CuDef*
G36*
G01*
X-4650000Y-12250000D02*
X-4650000Y-11850000D01*
G75*
G02*
X-4450000Y-11650000I200000J0D01*
G01*
X-3950000Y-11650000D01*
G75*
G02*
X-3750000Y-11850000I0J-200000D01*
G01*
X-3750000Y-12250000D01*
G75*
G02*
X-3950000Y-12450000I-200000J0D01*
G01*
X-4450000Y-12450000D01*
G75*
G02*
X-4650000Y-12250000I0J200000D01*
G01*
G37*
G04 #@! TD.AperFunction*
G04 #@! TA.AperFunction,SMDPad,CuDef*
G36*
G01*
X-2950000Y-12250000D02*
X-2950000Y-11850000D01*
G75*
G02*
X-2750000Y-11650000I200000J0D01*
G01*
X-2250000Y-11650000D01*
G75*
G02*
X-2050000Y-11850000I0J-200000D01*
G01*
X-2050000Y-12250000D01*
G75*
G02*
X-2250000Y-12450000I-200000J0D01*
G01*
X-2750000Y-12450000D01*
G75*
G02*
X-2950000Y-12250000I0J200000D01*
G01*
G37*
G04 #@! TD.AperFunction*
G04 #@! TA.AperFunction,SMDPad,CuDef*
D11*
G36*
X-7900000Y-11500000D02*
G01*
X-7600000Y-11500000D01*
X-7600000Y-11500361D01*
X-7585280Y-11500361D01*
X-7555981Y-11503247D01*
X-7527106Y-11508991D01*
X-7498933Y-11517537D01*
X-7471733Y-11528803D01*
X-7445769Y-11542681D01*
X-7421290Y-11559038D01*
X-7398532Y-11577715D01*
X-7377715Y-11598532D01*
X-7359038Y-11621290D01*
X-7342681Y-11645769D01*
X-7328803Y-11671733D01*
X-7317537Y-11698933D01*
X-7308991Y-11727106D01*
X-7304437Y-11750000D01*
X-7300000Y-11750000D01*
X-7300000Y-12250000D01*
X-7304437Y-12250000D01*
X-7308991Y-12272894D01*
X-7317537Y-12301067D01*
X-7328803Y-12328267D01*
X-7342681Y-12354231D01*
X-7359038Y-12378710D01*
X-7377715Y-12401468D01*
X-7398532Y-12422285D01*
X-7421290Y-12440962D01*
X-7445769Y-12457319D01*
X-7471733Y-12471197D01*
X-7498933Y-12482463D01*
X-7527106Y-12491009D01*
X-7555981Y-12496753D01*
X-7585280Y-12499639D01*
X-7600000Y-12499639D01*
X-7600000Y-12500000D01*
X-7900000Y-12500000D01*
X-7900000Y-11500000D01*
G37*
G04 #@! TD.AperFunction*
G04 #@! TA.AperFunction,SMDPad,CuDef*
G36*
X-8600000Y-12499639D02*
G01*
X-8614720Y-12499639D01*
X-8644019Y-12496753D01*
X-8672894Y-12491009D01*
X-8701067Y-12482463D01*
X-8728267Y-12471197D01*
X-8754231Y-12457319D01*
X-8778710Y-12440962D01*
X-8801468Y-12422285D01*
X-8822285Y-12401468D01*
X-8840962Y-12378710D01*
X-8857319Y-12354231D01*
X-8871197Y-12328267D01*
X-8882463Y-12301067D01*
X-8891009Y-12272894D01*
X-8895563Y-12250000D01*
X-8900000Y-12250000D01*
X-8900000Y-11750000D01*
X-8895563Y-11750000D01*
X-8891009Y-11727106D01*
X-8882463Y-11698933D01*
X-8871197Y-11671733D01*
X-8857319Y-11645769D01*
X-8840962Y-11621290D01*
X-8822285Y-11598532D01*
X-8801468Y-11577715D01*
X-8778710Y-11559038D01*
X-8754231Y-11542681D01*
X-8728267Y-11528803D01*
X-8701067Y-11517537D01*
X-8672894Y-11508991D01*
X-8644019Y-11503247D01*
X-8614720Y-11500361D01*
X-8600000Y-11500361D01*
X-8600000Y-11500000D01*
X-8300000Y-11500000D01*
X-8300000Y-12500000D01*
X-8600000Y-12500000D01*
X-8600000Y-12499639D01*
G37*
G04 #@! TD.AperFunction*
G04 #@! TA.AperFunction,SMDPad,CuDef*
G36*
X-7900000Y-10100000D02*
G01*
X-7600000Y-10100000D01*
X-7600000Y-10100361D01*
X-7585280Y-10100361D01*
X-7555981Y-10103247D01*
X-7527106Y-10108991D01*
X-7498933Y-10117537D01*
X-7471733Y-10128803D01*
X-7445769Y-10142681D01*
X-7421290Y-10159038D01*
X-7398532Y-10177715D01*
X-7377715Y-10198532D01*
X-7359038Y-10221290D01*
X-7342681Y-10245769D01*
X-7328803Y-10271733D01*
X-7317537Y-10298933D01*
X-7308991Y-10327106D01*
X-7304437Y-10350000D01*
X-7300000Y-10350000D01*
X-7300000Y-10850000D01*
X-7304437Y-10850000D01*
X-7308991Y-10872894D01*
X-7317537Y-10901067D01*
X-7328803Y-10928267D01*
X-7342681Y-10954231D01*
X-7359038Y-10978710D01*
X-7377715Y-11001468D01*
X-7398532Y-11022285D01*
X-7421290Y-11040962D01*
X-7445769Y-11057319D01*
X-7471733Y-11071197D01*
X-7498933Y-11082463D01*
X-7527106Y-11091009D01*
X-7555981Y-11096753D01*
X-7585280Y-11099639D01*
X-7600000Y-11099639D01*
X-7600000Y-11100000D01*
X-7900000Y-11100000D01*
X-7900000Y-10100000D01*
G37*
G04 #@! TD.AperFunction*
G04 #@! TA.AperFunction,SMDPad,CuDef*
G36*
X-8600000Y-11099639D02*
G01*
X-8614720Y-11099639D01*
X-8644019Y-11096753D01*
X-8672894Y-11091009D01*
X-8701067Y-11082463D01*
X-8728267Y-11071197D01*
X-8754231Y-11057319D01*
X-8778710Y-11040962D01*
X-8801468Y-11022285D01*
X-8822285Y-11001468D01*
X-8840962Y-10978710D01*
X-8857319Y-10954231D01*
X-8871197Y-10928267D01*
X-8882463Y-10901067D01*
X-8891009Y-10872894D01*
X-8895563Y-10850000D01*
X-8900000Y-10850000D01*
X-8900000Y-10350000D01*
X-8895563Y-10350000D01*
X-8891009Y-10327106D01*
X-8882463Y-10298933D01*
X-8871197Y-10271733D01*
X-8857319Y-10245769D01*
X-8840962Y-10221290D01*
X-8822285Y-10198532D01*
X-8801468Y-10177715D01*
X-8778710Y-10159038D01*
X-8754231Y-10142681D01*
X-8728267Y-10128803D01*
X-8701067Y-10117537D01*
X-8672894Y-10108991D01*
X-8644019Y-10103247D01*
X-8614720Y-10100361D01*
X-8600000Y-10100361D01*
X-8600000Y-10100000D01*
X-8300000Y-10100000D01*
X-8300000Y-11100000D01*
X-8600000Y-11100000D01*
X-8600000Y-11099639D01*
G37*
G04 #@! TD.AperFunction*
G04 #@! TA.AperFunction,SMDPad,CuDef*
G36*
G01*
X-5250000Y-15650000D02*
X-5250000Y-15350000D01*
G75*
G02*
X-5100000Y-15200000I150000J0D01*
G01*
X-4800000Y-15200000D01*
G75*
G02*
X-4650000Y-15350000I0J-150000D01*
G01*
X-4650000Y-15650000D01*
G75*
G02*
X-4800000Y-15800000I-150000J0D01*
G01*
X-5100000Y-15800000D01*
G75*
G02*
X-5250000Y-15650000I0J150000D01*
G01*
G37*
G04 #@! TD.AperFunction*
G04 #@! TA.AperFunction,SMDPad,CuDef*
G36*
G01*
X-4250000Y-15650000D02*
X-4250000Y-15350000D01*
G75*
G02*
X-4100000Y-15200000I150000J0D01*
G01*
X-3800000Y-15200000D01*
G75*
G02*
X-3650000Y-15350000I0J-150000D01*
G01*
X-3650000Y-15650000D01*
G75*
G02*
X-3800000Y-15800000I-150000J0D01*
G01*
X-4100000Y-15800000D01*
G75*
G02*
X-4250000Y-15650000I0J150000D01*
G01*
G37*
G04 #@! TD.AperFunction*
G04 #@! TA.AperFunction,SMDPad,CuDef*
G36*
G01*
X-1450000Y-15350000D02*
X-1450000Y-15650000D01*
G75*
G02*
X-1600000Y-15800000I-150000J0D01*
G01*
X-1900000Y-15800000D01*
G75*
G02*
X-2050000Y-15650000I0J150000D01*
G01*
X-2050000Y-15350000D01*
G75*
G02*
X-1900000Y-15200000I150000J0D01*
G01*
X-1600000Y-15200000D01*
G75*
G02*
X-1450000Y-15350000I0J-150000D01*
G01*
G37*
G04 #@! TD.AperFunction*
G04 #@! TA.AperFunction,SMDPad,CuDef*
G36*
G01*
X-2450000Y-15350000D02*
X-2450000Y-15650000D01*
G75*
G02*
X-2600000Y-15800000I-150000J0D01*
G01*
X-2900000Y-15800000D01*
G75*
G02*
X-3050000Y-15650000I0J150000D01*
G01*
X-3050000Y-15350000D01*
G75*
G02*
X-2900000Y-15200000I150000J0D01*
G01*
X-2600000Y-15200000D01*
G75*
G02*
X-2450000Y-15350000I0J-150000D01*
G01*
G37*
G04 #@! TD.AperFunction*
G04 #@! TA.AperFunction,SMDPad,CuDef*
G36*
G01*
X1700000Y-9300000D02*
X1300000Y-9300000D01*
G75*
G02*
X1100000Y-9100000I0J200000D01*
G01*
X1100000Y-8600000D01*
G75*
G02*
X1300000Y-8400000I200000J0D01*
G01*
X1700000Y-8400000D01*
G75*
G02*
X1900000Y-8600000I0J-200000D01*
G01*
X1900000Y-9100000D01*
G75*
G02*
X1700000Y-9300000I-200000J0D01*
G01*
G37*
G04 #@! TD.AperFunction*
G04 #@! TA.AperFunction,SMDPad,CuDef*
G36*
G01*
X1700000Y-7600000D02*
X1300000Y-7600000D01*
G75*
G02*
X1100000Y-7400000I0J200000D01*
G01*
X1100000Y-6900000D01*
G75*
G02*
X1300000Y-6700000I200000J0D01*
G01*
X1700000Y-6700000D01*
G75*
G02*
X1900000Y-6900000I0J-200000D01*
G01*
X1900000Y-7400000D01*
G75*
G02*
X1700000Y-7600000I-200000J0D01*
G01*
G37*
G04 #@! TD.AperFunction*
G04 #@! TA.AperFunction,SMDPad,CuDef*
G36*
G01*
X4300000Y-6700000D02*
X4700000Y-6700000D01*
G75*
G02*
X4900000Y-6900000I0J-200000D01*
G01*
X4900000Y-7400000D01*
G75*
G02*
X4700000Y-7600000I-200000J0D01*
G01*
X4300000Y-7600000D01*
G75*
G02*
X4100000Y-7400000I0J200000D01*
G01*
X4100000Y-6900000D01*
G75*
G02*
X4300000Y-6700000I200000J0D01*
G01*
G37*
G04 #@! TD.AperFunction*
G04 #@! TA.AperFunction,SMDPad,CuDef*
G36*
G01*
X4300000Y-8400000D02*
X4700000Y-8400000D01*
G75*
G02*
X4900000Y-8600000I0J-200000D01*
G01*
X4900000Y-9100000D01*
G75*
G02*
X4700000Y-9300000I-200000J0D01*
G01*
X4300000Y-9300000D01*
G75*
G02*
X4100000Y-9100000I0J200000D01*
G01*
X4100000Y-8600000D01*
G75*
G02*
X4300000Y-8400000I200000J0D01*
G01*
G37*
G04 #@! TD.AperFunction*
G04 #@! TA.AperFunction,SMDPad,CuDef*
G36*
G01*
X-4700000Y-6700000D02*
X-4300000Y-6700000D01*
G75*
G02*
X-4100000Y-6900000I0J-200000D01*
G01*
X-4100000Y-7400000D01*
G75*
G02*
X-4300000Y-7600000I-200000J0D01*
G01*
X-4700000Y-7600000D01*
G75*
G02*
X-4900000Y-7400000I0J200000D01*
G01*
X-4900000Y-6900000D01*
G75*
G02*
X-4700000Y-6700000I200000J0D01*
G01*
G37*
G04 #@! TD.AperFunction*
G04 #@! TA.AperFunction,SMDPad,CuDef*
G36*
G01*
X-4700000Y-8400000D02*
X-4300000Y-8400000D01*
G75*
G02*
X-4100000Y-8600000I0J-200000D01*
G01*
X-4100000Y-9100000D01*
G75*
G02*
X-4300000Y-9300000I-200000J0D01*
G01*
X-4700000Y-9300000D01*
G75*
G02*
X-4900000Y-9100000I0J200000D01*
G01*
X-4900000Y-8600000D01*
G75*
G02*
X-4700000Y-8400000I200000J0D01*
G01*
G37*
G04 #@! TD.AperFunction*
D12*
X11430000Y-34290000D03*
D13*
X11430000Y-1270000D03*
D12*
X11430000Y-3810000D03*
X11430000Y-6350000D03*
X11430000Y-8890000D03*
X11430000Y-11430000D03*
X11430000Y-13970000D03*
X11430000Y-16510000D03*
X11430000Y-19050000D03*
X11430000Y-21590000D03*
X11430000Y-24130000D03*
X11430000Y-26670000D03*
X11430000Y-29210000D03*
X11430000Y-31750000D03*
X11430000Y-36830000D03*
X-11430000Y-36830000D03*
X-11430000Y-34290000D03*
X-11430000Y-31750000D03*
X-11430000Y-29210000D03*
X-11430000Y-26670000D03*
X-11430000Y-24130000D03*
X-11430000Y-21590000D03*
X-11430000Y-19050000D03*
X-11430000Y-16510000D03*
X-11430000Y-13970000D03*
X-11430000Y-11430000D03*
X-11430000Y-8890000D03*
X-11430000Y-6350000D03*
X-11430000Y-3810000D03*
D13*
X-11430000Y-1270000D03*
G04 #@! TA.AperFunction,SMDPad,CuDef*
G36*
G01*
X-1300000Y-9300000D02*
X-1700000Y-9300000D01*
G75*
G02*
X-1900000Y-9100000I0J200000D01*
G01*
X-1900000Y-8600000D01*
G75*
G02*
X-1700000Y-8400000I200000J0D01*
G01*
X-1300000Y-8400000D01*
G75*
G02*
X-1100000Y-8600000I0J-200000D01*
G01*
X-1100000Y-9100000D01*
G75*
G02*
X-1300000Y-9300000I-200000J0D01*
G01*
G37*
G04 #@! TD.AperFunction*
G04 #@! TA.AperFunction,SMDPad,CuDef*
G36*
G01*
X-1300000Y-7600000D02*
X-1700000Y-7600000D01*
G75*
G02*
X-1900000Y-7400000I0J200000D01*
G01*
X-1900000Y-6900000D01*
G75*
G02*
X-1700000Y-6700000I200000J0D01*
G01*
X-1300000Y-6700000D01*
G75*
G02*
X-1100000Y-6900000I0J-200000D01*
G01*
X-1100000Y-7400000D01*
G75*
G02*
X-1300000Y-7600000I-200000J0D01*
G01*
G37*
G04 #@! TD.AperFunction*
G04 #@! TA.AperFunction,SMDPad,CuDef*
G36*
G01*
X-1300000Y-5300000D02*
X-1700000Y-5300000D01*
G75*
G02*
X-1900000Y-5100000I0J200000D01*
G01*
X-1900000Y-4600000D01*
G75*
G02*
X-1700000Y-4400000I200000J0D01*
G01*
X-1300000Y-4400000D01*
G75*
G02*
X-1100000Y-4600000I0J-200000D01*
G01*
X-1100000Y-5100000D01*
G75*
G02*
X-1300000Y-5300000I-200000J0D01*
G01*
G37*
G04 #@! TD.AperFunction*
G04 #@! TA.AperFunction,SMDPad,CuDef*
G36*
G01*
X-1300000Y-3600000D02*
X-1700000Y-3600000D01*
G75*
G02*
X-1900000Y-3400000I0J200000D01*
G01*
X-1900000Y-2900000D01*
G75*
G02*
X-1700000Y-2700000I200000J0D01*
G01*
X-1300000Y-2700000D01*
G75*
G02*
X-1100000Y-2900000I0J-200000D01*
G01*
X-1100000Y-3400000D01*
G75*
G02*
X-1300000Y-3600000I-200000J0D01*
G01*
G37*
G04 #@! TD.AperFunction*
G04 #@! TA.AperFunction,SMDPad,CuDef*
G36*
G01*
X-4300000Y-5300000D02*
X-4700000Y-5300000D01*
G75*
G02*
X-4900000Y-5100000I0J200000D01*
G01*
X-4900000Y-4600000D01*
G75*
G02*
X-4700000Y-4400000I200000J0D01*
G01*
X-4300000Y-4400000D01*
G75*
G02*
X-4100000Y-4600000I0J-200000D01*
G01*
X-4100000Y-5100000D01*
G75*
G02*
X-4300000Y-5300000I-200000J0D01*
G01*
G37*
G04 #@! TD.AperFunction*
G04 #@! TA.AperFunction,SMDPad,CuDef*
G36*
G01*
X-4300000Y-3600000D02*
X-4700000Y-3600000D01*
G75*
G02*
X-4900000Y-3400000I0J200000D01*
G01*
X-4900000Y-2900000D01*
G75*
G02*
X-4700000Y-2700000I200000J0D01*
G01*
X-4300000Y-2700000D01*
G75*
G02*
X-4100000Y-2900000I0J-200000D01*
G01*
X-4100000Y-3400000D01*
G75*
G02*
X-4300000Y-3600000I-200000J0D01*
G01*
G37*
G04 #@! TD.AperFunction*
D14*
X0Y-13000000D03*
X5600000Y-17700000D03*
X6750000Y-8100000D03*
X6750000Y-10640000D03*
X6750000Y-11910000D03*
X6750000Y-13180000D03*
X6750000Y-14450000D03*
X6750000Y-15720000D03*
X6750000Y-16990000D03*
X6750000Y-18260000D03*
X4450000Y-17700000D03*
X-4450000Y-17500000D03*
X-6750000Y-18260000D03*
X-6750000Y-16990000D03*
X-6750000Y-15720000D03*
X-6750000Y-14450000D03*
X-6750000Y-13180000D03*
X-6000000Y-11910000D03*
X-6000000Y-10640000D03*
X-6750000Y-9370000D03*
X-6750000Y-8100000D03*
D15*
X-1500000Y-4850000D02*
X-4500000Y-4850000D01*
X-10390000Y-4850000D02*
X-11430000Y-3810000D01*
X-4500000Y-4850000D02*
X-10390000Y-4850000D01*
D16*
X-4500000Y-4850000D02*
X-4500000Y-7150000D01*
X4500000Y-7150000D02*
X4500000Y-5950000D01*
X3400000Y-4850000D02*
X-1500000Y-4850000D01*
X4500000Y-5950000D02*
X3400000Y-4850000D01*
D15*
X-1500000Y-3150000D02*
X-4500000Y-3150000D01*
X-4500000Y-3150000D02*
X-8250000Y-3150000D01*
X-10130000Y-1270000D02*
X-11430000Y-1270000D01*
X-8250000Y-3150000D02*
X-10130000Y-1270000D01*
X11430000Y-1270000D02*
X2730000Y-1270000D01*
X850000Y-3150000D02*
X-1500000Y-3150000D01*
X2730000Y-1270000D02*
X850000Y-3150000D01*
D16*
X0Y-7200000D02*
X50000Y-7150000D01*
X0Y-13000000D02*
X0Y-7200000D01*
X50000Y-7150000D02*
X-1500000Y-7150000D01*
X1500000Y-7150000D02*
X50000Y-7150000D01*
X0Y-13000000D02*
X0Y-15350000D01*
X0Y-15350000D02*
X-1050000Y-16400000D01*
X-1050000Y-16400000D02*
X-3100000Y-16400000D01*
X-3350000Y-16150000D02*
X-3350000Y-15500000D01*
X-3100000Y-16400000D02*
X-3350000Y-16150000D01*
X-3350000Y-15500000D02*
X-3950000Y-15500000D01*
X-2750000Y-15500000D02*
X-3350000Y-15500000D01*
X-1500000Y-8850000D02*
X-4500000Y-8850000D01*
X-4500000Y-8850000D02*
X-5100000Y-8850000D01*
X-7600000Y-6350000D02*
X-11430000Y-6350000D01*
X-5100000Y-8850000D02*
X-7600000Y-6350000D01*
X10399799Y-33259799D02*
X11430000Y-34290000D01*
X9485379Y-28558563D02*
X9942589Y-29015773D01*
X9485379Y-26665155D02*
X9485379Y-28558563D01*
X10399799Y-31366391D02*
X10399799Y-33259799D01*
X9028169Y-26207945D02*
X9485379Y-26665155D01*
X5600000Y-17700000D02*
X5600000Y-18049802D01*
X5600000Y-18049802D02*
X8113749Y-20563551D01*
X8113749Y-20563551D02*
X8113749Y-21506709D01*
X8113749Y-21506709D02*
X8570959Y-21963919D01*
X9942589Y-29015773D02*
X9942589Y-30909181D01*
X9028169Y-24314537D02*
X9028169Y-26207945D01*
X8570959Y-21963919D02*
X8570959Y-23857327D01*
X9942589Y-30909181D02*
X10399799Y-31366391D01*
X8570959Y-23857327D02*
X9028169Y-24314537D01*
X1500000Y-13600000D02*
X1500000Y-8850000D01*
X5600000Y-17700000D02*
X1500000Y-13600000D01*
X10399799Y-12939799D02*
X11430000Y-13970000D01*
X9609799Y-8100000D02*
X10399799Y-8890000D01*
X10399799Y-8890000D02*
X10399799Y-12939799D01*
X6750000Y-8100000D02*
X9609799Y-8100000D01*
X11430000Y-16510000D02*
X10399799Y-15479799D01*
X10399799Y-13586391D02*
X9942589Y-13129181D01*
X10399799Y-15479799D02*
X10399799Y-13586391D01*
X9942589Y-13129181D02*
X9942589Y-11430000D01*
X9152589Y-10640000D02*
X9942589Y-11430000D01*
X6750000Y-10640000D02*
X9152589Y-10640000D01*
X11430000Y-19050000D02*
X10399799Y-18019799D01*
X10399799Y-16126391D02*
X9942589Y-15669181D01*
X10399799Y-18019799D02*
X10399799Y-16126391D01*
X9942589Y-13775773D02*
X9485379Y-13318563D01*
X9942589Y-15669181D02*
X9942589Y-13775773D01*
X9485379Y-13318563D02*
X9485379Y-12700000D01*
X8695379Y-11910000D02*
X9485379Y-12700000D01*
X6750000Y-11910000D02*
X8695379Y-11910000D01*
X11430000Y-21590000D02*
X10399799Y-20559799D01*
X10399799Y-18666391D02*
X9942589Y-18209181D01*
X10399799Y-20559799D02*
X10399799Y-18666391D01*
X9942589Y-16315773D02*
X9485379Y-15858563D01*
X9942589Y-18209181D02*
X9942589Y-16315773D01*
X9485379Y-15858563D02*
X9485379Y-13965155D01*
X8700224Y-13180000D02*
X9485379Y-13965155D01*
X6750000Y-13180000D02*
X8700224Y-13180000D01*
X11430000Y-24130000D02*
X10399799Y-23099799D01*
X10399799Y-21206391D02*
X9942589Y-20749181D01*
X10399799Y-23099799D02*
X10399799Y-21206391D01*
X9942589Y-18855773D02*
X9485379Y-18398563D01*
X9942589Y-20749181D02*
X9942589Y-18855773D01*
X9485379Y-16505155D02*
X9028169Y-16047945D01*
X9485379Y-18398563D02*
X9485379Y-16505155D01*
X9028169Y-16047945D02*
X9028169Y-15240000D01*
X8238169Y-14450000D02*
X9028169Y-15240000D01*
X6750000Y-14450000D02*
X8238169Y-14450000D01*
X11430000Y-26670000D02*
X10399799Y-25639799D01*
X10399799Y-23746391D02*
X9942589Y-23289181D01*
X10399799Y-25639799D02*
X10399799Y-23746391D01*
X9942589Y-21395773D02*
X9485379Y-20938563D01*
X9942589Y-23289181D02*
X9942589Y-21395773D01*
X9485379Y-19045155D02*
X9028169Y-18587945D01*
X9485379Y-20938563D02*
X9485379Y-19045155D01*
X9028169Y-18587945D02*
X9028169Y-16694537D01*
X8053632Y-15720000D02*
X9028169Y-16694537D01*
X6750000Y-15720000D02*
X8053632Y-15720000D01*
X11430000Y-29210000D02*
X10399799Y-28179799D01*
X10399799Y-26286391D02*
X9942589Y-25829181D01*
X10399799Y-28179799D02*
X10399799Y-26286391D01*
X9942589Y-23935773D02*
X9485379Y-23478563D01*
X9942589Y-25829181D02*
X9942589Y-23935773D01*
X9485379Y-21585155D02*
X9028169Y-21127945D01*
X9485379Y-23478563D02*
X9485379Y-21585155D01*
X9028169Y-19234537D02*
X8570959Y-18777327D01*
X9028169Y-21127945D02*
X9028169Y-19234537D01*
X8570959Y-18777327D02*
X8570959Y-17780000D01*
X7780959Y-16990000D02*
X8570959Y-17780000D01*
X6750000Y-16990000D02*
X7780959Y-16990000D01*
X11430000Y-31750000D02*
X10399799Y-30719799D01*
X10399799Y-28826391D02*
X9942589Y-28369181D01*
X10399799Y-30719799D02*
X10399799Y-28826391D01*
X9942589Y-26475773D02*
X9485379Y-26018563D01*
X9942589Y-28369181D02*
X9942589Y-26475773D01*
X9485379Y-24125155D02*
X9028169Y-23667945D01*
X9485379Y-26018563D02*
X9485379Y-24125155D01*
X9028169Y-21774537D02*
X8570959Y-21317327D01*
X9028169Y-23667945D02*
X9028169Y-21774537D01*
X8570959Y-21317327D02*
X8570959Y-19423919D01*
X7407040Y-18260000D02*
X8570959Y-19423919D01*
X6750000Y-18260000D02*
X7407040Y-18260000D01*
X4500000Y-15679802D02*
X4500000Y-8850000D01*
X6750000Y-17929802D02*
X4500000Y-15679802D01*
X6750000Y-18260000D02*
X6750000Y-17929802D01*
X10399799Y-35799799D02*
X11430000Y-36830000D01*
X10399799Y-33906391D02*
X10399799Y-35799799D01*
X9942589Y-31555773D02*
X9942589Y-33449181D01*
X9942589Y-33449181D02*
X10399799Y-33906391D01*
X9485379Y-31098563D02*
X9942589Y-31555773D01*
X8509000Y-26335368D02*
X9028169Y-26854537D01*
X4450000Y-18489552D02*
X8113749Y-22153301D01*
X8509000Y-24441960D02*
X8509000Y-26335368D01*
X9028169Y-28747945D02*
X9485379Y-29205155D01*
X8113749Y-24046709D02*
X8509000Y-24441960D01*
X9485379Y-29205155D02*
X9485379Y-31098563D01*
X8113749Y-22153301D02*
X8113749Y-24046709D01*
X9028169Y-26854537D02*
X9028169Y-28747945D01*
X4450000Y-17700000D02*
X4450000Y-18489552D01*
X-11430000Y-36830000D02*
X-10399799Y-35799799D01*
X-10399799Y-33906391D02*
X-9942589Y-33449181D01*
X-10399799Y-35799799D02*
X-10399799Y-33906391D01*
X-9942589Y-31555773D02*
X-9485379Y-31098563D01*
X-9942589Y-33449181D02*
X-9942589Y-31555773D01*
X-9485379Y-29205155D02*
X-9028169Y-28747945D01*
X-9485379Y-31098563D02*
X-9485379Y-29205155D01*
X-9028169Y-26854537D02*
X-8570959Y-26397327D01*
X-9028169Y-28747945D02*
X-9028169Y-26854537D01*
X-8570959Y-24503919D02*
X-8113749Y-24046709D01*
X-8570959Y-26397327D02*
X-8570959Y-24503919D01*
X-8113749Y-22153301D02*
X-7656539Y-21696091D01*
X-8113749Y-24046709D02*
X-8113749Y-22153301D01*
X-7656539Y-21696091D02*
X-7656539Y-20356539D01*
X-4800000Y-17500000D02*
X-4450000Y-17500000D01*
X-7656539Y-20356539D02*
X-4800000Y-17500000D01*
X-11430000Y-34290000D02*
X-10399799Y-33259799D01*
X-10399799Y-31366391D02*
X-9942589Y-30909181D01*
X-10399799Y-33259799D02*
X-10399799Y-31366391D01*
X-9942589Y-29015773D02*
X-9485379Y-28558563D01*
X-9942589Y-30909181D02*
X-9942589Y-29015773D01*
X-9485379Y-26665155D02*
X-9028169Y-26207945D01*
X-9485379Y-28558563D02*
X-9485379Y-26665155D01*
X-9028169Y-24314537D02*
X-8570959Y-23857327D01*
X-9028169Y-26207945D02*
X-9028169Y-24314537D01*
X-8570959Y-21963919D02*
X-8113749Y-21506709D01*
X-8570959Y-23857327D02*
X-8570959Y-21963919D01*
X-6760448Y-18260000D02*
X-6750000Y-18260000D01*
X-8113749Y-19613301D02*
X-6760448Y-18260000D01*
X-8113749Y-21506709D02*
X-8113749Y-19613301D01*
X-11430000Y-31750000D02*
X-10399799Y-30719799D01*
X-10399799Y-28826391D02*
X-9942589Y-28369181D01*
X-10399799Y-30719799D02*
X-10399799Y-28826391D01*
X-9942589Y-26475773D02*
X-9485379Y-26018563D01*
X-9942589Y-28369181D02*
X-9942589Y-26475773D01*
X-9485379Y-24125155D02*
X-9028169Y-23667945D01*
X-9485379Y-26018563D02*
X-9485379Y-24125155D01*
X-9028169Y-21774537D02*
X-8570959Y-21317327D01*
X-9028169Y-23667945D02*
X-9028169Y-21774537D01*
X-8570959Y-19423919D02*
X-8113749Y-18966709D01*
X-8570959Y-21317327D02*
X-8570959Y-19423919D01*
X-8113749Y-18966709D02*
X-8113749Y-17780000D01*
X-7323749Y-16990000D02*
X-8113749Y-17780000D01*
X-6750000Y-16990000D02*
X-7323749Y-16990000D01*
X-11430000Y-29210000D02*
X-10399799Y-28179799D01*
X-10399799Y-26286391D02*
X-9942589Y-25829181D01*
X-10399799Y-28179799D02*
X-10399799Y-26286391D01*
X-9942589Y-23935773D02*
X-9485379Y-23478563D01*
X-9942589Y-25829181D02*
X-9942589Y-23935773D01*
X-9485379Y-21585155D02*
X-9028169Y-21127945D01*
X-9485379Y-23478563D02*
X-9485379Y-21585155D01*
X-9028169Y-19234537D02*
X-8570959Y-18777327D01*
X-9028169Y-21127945D02*
X-9028169Y-19234537D01*
X-8570959Y-18777327D02*
X-8570959Y-16883919D01*
X-7407040Y-15720000D02*
X-8570959Y-16883919D01*
X-6750000Y-15720000D02*
X-7407040Y-15720000D01*
X-11430000Y-26670000D02*
X-10399799Y-25639799D01*
X-10399799Y-23746391D02*
X-9942589Y-23289181D01*
X-10399799Y-25639799D02*
X-10399799Y-23746391D01*
X-9942589Y-21395773D02*
X-9485379Y-20938563D01*
X-9942589Y-23289181D02*
X-9942589Y-21395773D01*
X-9485379Y-19045155D02*
X-9028169Y-18587945D01*
X-9485379Y-20938563D02*
X-9485379Y-19045155D01*
X-9028169Y-16694537D02*
X-8570959Y-16237327D01*
X-9028169Y-18587945D02*
X-9028169Y-16694537D01*
X-8570959Y-16237327D02*
X-8570959Y-15240000D01*
X-7780959Y-14450000D02*
X-8570959Y-15240000D01*
X-6750000Y-14450000D02*
X-7780959Y-14450000D01*
X-11430000Y-24130000D02*
X-10399799Y-23099799D01*
X-10399799Y-21206391D02*
X-9942589Y-20749181D01*
X-10399799Y-23099799D02*
X-10399799Y-21206391D01*
X-9942589Y-18855773D02*
X-9485379Y-18398563D01*
X-9942589Y-20749181D02*
X-9942589Y-18855773D01*
X-9485379Y-16505155D02*
X-9028169Y-16047945D01*
X-9485379Y-18398563D02*
X-9485379Y-16505155D01*
X-9028169Y-16047945D02*
X-9028169Y-14154537D01*
X-8053632Y-13180000D02*
X-9028169Y-14154537D01*
X-6750000Y-13180000D02*
X-8053632Y-13180000D01*
X-7510000Y-11910000D02*
X-7600000Y-12000000D01*
X-6000000Y-11910000D02*
X-7510000Y-11910000D01*
X-4200000Y-12050000D02*
X-5100000Y-12050000D01*
X-5240000Y-11910000D02*
X-6000000Y-11910000D01*
X-5100000Y-12050000D02*
X-5240000Y-11910000D01*
X-4200000Y-12050000D02*
X-4200000Y-12550000D01*
X-4200000Y-12550000D02*
X-4200000Y-12600000D01*
X-4200000Y-12600000D02*
X-4350000Y-12750000D01*
X-4650000Y-13900000D02*
X-4650000Y-12850000D01*
X-4550000Y-12750000D02*
X-4350000Y-12750000D01*
X-4650000Y-12850000D02*
X-4550000Y-12750000D01*
X-4650000Y-13900000D02*
X-4650000Y-14900000D01*
X-4650000Y-14900000D02*
X-4750000Y-15000000D01*
X-4950000Y-15500000D02*
X-4950000Y-15050000D01*
X-4900000Y-15000000D02*
X-4750000Y-15000000D01*
X-4950000Y-15050000D02*
X-4900000Y-15000000D01*
X-7560000Y-10640000D02*
X-7600000Y-10600000D01*
X-6000000Y-10640000D02*
X-7560000Y-10640000D01*
X-6000000Y-10640000D02*
X-3110000Y-10640000D01*
X-2500000Y-11250000D02*
X-2500000Y-12050000D01*
X-3110000Y-10640000D02*
X-2500000Y-11250000D01*
X-2500000Y-12050000D02*
X-2500000Y-12550000D01*
X-2500000Y-12550000D02*
X-2300000Y-12750000D01*
X-2050000Y-13900000D02*
X-2050000Y-12850000D01*
X-2150000Y-12750000D02*
X-2300000Y-12750000D01*
X-2050000Y-12850000D02*
X-2150000Y-12750000D01*
X-1750000Y-15500000D02*
X-1750000Y-15100000D01*
X-2050000Y-13900000D02*
X-2050000Y-14900000D01*
X-2050000Y-14900000D02*
X-1950000Y-15000000D01*
X-1850000Y-15000000D02*
X-1750000Y-15100000D01*
X-1950000Y-15000000D02*
X-1850000Y-15000000D01*
X-11430000Y-16510000D02*
X-10399799Y-15479799D01*
X-10399799Y-13586391D02*
X-9942589Y-13129181D01*
X-10399799Y-15479799D02*
X-10399799Y-13586391D01*
X-9942589Y-13129181D02*
X-9942589Y-10160000D01*
X-9152589Y-9370000D02*
X-9942589Y-10160000D01*
X-6750000Y-9370000D02*
X-9152589Y-9370000D01*
X-10399799Y-12939799D02*
X-11430000Y-13970000D01*
X-10399799Y-8890000D02*
X-10399799Y-12939799D01*
X-9609799Y-8100000D02*
X-10399799Y-8890000D01*
X-6750000Y-8100000D02*
X-9609799Y-8100000D01*
X-11430000Y-21590000D02*
X-10399799Y-20559799D01*
X-10399799Y-18666391D02*
X-9942589Y-18209181D01*
X-10399799Y-20559799D02*
X-10399799Y-18666391D01*
X-9942589Y-16315773D02*
X-9485379Y-15858563D01*
X-9942589Y-18209181D02*
X-9942589Y-16315773D01*
X-9485379Y-15858563D02*
X-9485379Y-13965155D01*
X-9485379Y-13965155D02*
X-9028169Y-13507945D01*
X-9028169Y-12428169D02*
X-8600000Y-12000000D01*
X-9028169Y-13507945D02*
X-9028169Y-12428169D01*
X-11430000Y-19050000D02*
X-10399799Y-18019799D01*
X-10399799Y-16126391D02*
X-9942589Y-15669181D01*
X-10399799Y-18019799D02*
X-10399799Y-16126391D01*
X-9942589Y-13775773D02*
X-9485379Y-13318563D01*
X-9942589Y-15669181D02*
X-9942589Y-13775773D01*
X-9485379Y-13318563D02*
X-9485379Y-10805379D01*
X-9280000Y-10600000D02*
X-8600000Y-10600000D01*
X-9485379Y-10805379D02*
X-9280000Y-10600000D01*
M02*
