G04 #@! TF.GenerationSoftware,KiCad,Pcbnew,(5.1.10-1-10_14)*
G04 #@! TF.CreationDate,2021-12-01T23:11:49+09:00*
G04 #@! TF.ProjectId,DIP-ESP32,4449502d-4553-4503-9332-2e6b69636164,V1.0*
G04 #@! TF.SameCoordinates,Original*
G04 #@! TF.FileFunction,Legend,Top*
G04 #@! TF.FilePolarity,Positive*
%FSLAX46Y46*%
G04 Gerber Fmt 4.6, Leading zero omitted, Abs format (unit mm)*
G04 Created by KiCad (PCBNEW (5.1.10-1-10_14)) date 2021-12-01 23:11:49*
%MOMM*%
%LPD*%
G01*
G04 APERTURE LIST*
%ADD10C,0.120000*%
%ADD11C,0.200000*%
G04 APERTURE END LIST*
D10*
X9760000Y-2006523D02*
X9721904Y-2082714D01*
X9721904Y-2197000D01*
X9760000Y-2311285D01*
X9836190Y-2387476D01*
X9912380Y-2425571D01*
X10064761Y-2463666D01*
X10179047Y-2463666D01*
X10331428Y-2425571D01*
X10407619Y-2387476D01*
X10483809Y-2311285D01*
X10521904Y-2197000D01*
X10521904Y-2120809D01*
X10483809Y-2006523D01*
X10445714Y-1968428D01*
X10179047Y-1968428D01*
X10179047Y-2120809D01*
X10521904Y-1625571D02*
X9721904Y-1625571D01*
X10521904Y-1168428D01*
X9721904Y-1168428D01*
X10521904Y-787476D02*
X9721904Y-787476D01*
X9721904Y-597000D01*
X9760000Y-482714D01*
X9836190Y-406523D01*
X9912380Y-368428D01*
X10064761Y-330333D01*
X10179047Y-330333D01*
X10331428Y-368428D01*
X10407619Y-406523D01*
X10483809Y-482714D01*
X10521904Y-597000D01*
X10521904Y-787476D01*
X9798095Y-4419523D02*
X9760000Y-4381428D01*
X9721904Y-4305238D01*
X9721904Y-4114761D01*
X9760000Y-4038571D01*
X9798095Y-4000476D01*
X9874285Y-3962380D01*
X9950476Y-3962380D01*
X10064761Y-4000476D01*
X10521904Y-4457619D01*
X10521904Y-3962380D01*
X9721904Y-3695714D02*
X9721904Y-3200476D01*
X10026666Y-3467142D01*
X10026666Y-3352857D01*
X10064761Y-3276666D01*
X10102857Y-3238571D01*
X10179047Y-3200476D01*
X10369523Y-3200476D01*
X10445714Y-3238571D01*
X10483809Y-3276666D01*
X10521904Y-3352857D01*
X10521904Y-3581428D01*
X10483809Y-3657619D01*
X10445714Y-3695714D01*
X9798095Y-6959523D02*
X9760000Y-6921428D01*
X9721904Y-6845238D01*
X9721904Y-6654761D01*
X9760000Y-6578571D01*
X9798095Y-6540476D01*
X9874285Y-6502380D01*
X9950476Y-6502380D01*
X10064761Y-6540476D01*
X10521904Y-6997619D01*
X10521904Y-6502380D01*
X9798095Y-6197619D02*
X9760000Y-6159523D01*
X9721904Y-6083333D01*
X9721904Y-5892857D01*
X9760000Y-5816666D01*
X9798095Y-5778571D01*
X9874285Y-5740476D01*
X9950476Y-5740476D01*
X10064761Y-5778571D01*
X10521904Y-6235714D01*
X10521904Y-5740476D01*
X9721904Y-9899523D02*
X9721904Y-9442380D01*
X10521904Y-9670952D02*
X9721904Y-9670952D01*
X9721904Y-9251904D02*
X10521904Y-8718571D01*
X9721904Y-8718571D02*
X10521904Y-9251904D01*
X10521904Y-8413809D02*
X9721904Y-8413809D01*
X9721904Y-8223333D01*
X9760000Y-8109047D01*
X9836190Y-8032857D01*
X9912380Y-7994761D01*
X10064761Y-7956666D01*
X10179047Y-7956666D01*
X10331428Y-7994761D01*
X10407619Y-8032857D01*
X10483809Y-8109047D01*
X10521904Y-8223333D01*
X10521904Y-8413809D01*
X10521904Y-11963333D02*
X10140952Y-12230000D01*
X10521904Y-12420476D02*
X9721904Y-12420476D01*
X9721904Y-12115714D01*
X9760000Y-12039523D01*
X9798095Y-12001428D01*
X9874285Y-11963333D01*
X9988571Y-11963333D01*
X10064761Y-12001428D01*
X10102857Y-12039523D01*
X10140952Y-12115714D01*
X10140952Y-12420476D01*
X9721904Y-11696666D02*
X10521904Y-11163333D01*
X9721904Y-11163333D02*
X10521904Y-11696666D01*
X10521904Y-10858571D02*
X9721904Y-10858571D01*
X9721904Y-10668095D01*
X9760000Y-10553809D01*
X9836190Y-10477619D01*
X9912380Y-10439523D01*
X10064761Y-10401428D01*
X10179047Y-10401428D01*
X10331428Y-10439523D01*
X10407619Y-10477619D01*
X10483809Y-10553809D01*
X10521904Y-10668095D01*
X10521904Y-10858571D01*
X9798095Y-14579523D02*
X9760000Y-14541428D01*
X9721904Y-14465238D01*
X9721904Y-14274761D01*
X9760000Y-14198571D01*
X9798095Y-14160476D01*
X9874285Y-14122380D01*
X9950476Y-14122380D01*
X10064761Y-14160476D01*
X10521904Y-14617619D01*
X10521904Y-14122380D01*
X10521904Y-13360476D02*
X10521904Y-13817619D01*
X10521904Y-13589047D02*
X9721904Y-13589047D01*
X9836190Y-13665238D01*
X9912380Y-13741428D01*
X9950476Y-13817619D01*
X10521904Y-16662380D02*
X10521904Y-17119523D01*
X10521904Y-16890952D02*
X9721904Y-16890952D01*
X9836190Y-16967142D01*
X9912380Y-17043333D01*
X9950476Y-17119523D01*
X10521904Y-16281428D02*
X10521904Y-16129047D01*
X10483809Y-16052857D01*
X10445714Y-16014761D01*
X10331428Y-15938571D01*
X10179047Y-15900476D01*
X9874285Y-15900476D01*
X9798095Y-15938571D01*
X9760000Y-15976666D01*
X9721904Y-16052857D01*
X9721904Y-16205238D01*
X9760000Y-16281428D01*
X9798095Y-16319523D01*
X9874285Y-16357619D01*
X10064761Y-16357619D01*
X10140952Y-16319523D01*
X10179047Y-16281428D01*
X10217142Y-16205238D01*
X10217142Y-16052857D01*
X10179047Y-15976666D01*
X10140952Y-15938571D01*
X10064761Y-15900476D01*
X10521904Y-19202380D02*
X10521904Y-19659523D01*
X10521904Y-19430952D02*
X9721904Y-19430952D01*
X9836190Y-19507142D01*
X9912380Y-19583333D01*
X9950476Y-19659523D01*
X10064761Y-18745238D02*
X10026666Y-18821428D01*
X9988571Y-18859523D01*
X9912380Y-18897619D01*
X9874285Y-18897619D01*
X9798095Y-18859523D01*
X9760000Y-18821428D01*
X9721904Y-18745238D01*
X9721904Y-18592857D01*
X9760000Y-18516666D01*
X9798095Y-18478571D01*
X9874285Y-18440476D01*
X9912380Y-18440476D01*
X9988571Y-18478571D01*
X10026666Y-18516666D01*
X10064761Y-18592857D01*
X10064761Y-18745238D01*
X10102857Y-18821428D01*
X10140952Y-18859523D01*
X10217142Y-18897619D01*
X10369523Y-18897619D01*
X10445714Y-18859523D01*
X10483809Y-18821428D01*
X10521904Y-18745238D01*
X10521904Y-18592857D01*
X10483809Y-18516666D01*
X10445714Y-18478571D01*
X10369523Y-18440476D01*
X10217142Y-18440476D01*
X10140952Y-18478571D01*
X10102857Y-18516666D01*
X10064761Y-18592857D01*
X9721904Y-21399523D02*
X9721904Y-21780476D01*
X10102857Y-21818571D01*
X10064761Y-21780476D01*
X10026666Y-21704285D01*
X10026666Y-21513809D01*
X10064761Y-21437619D01*
X10102857Y-21399523D01*
X10179047Y-21361428D01*
X10369523Y-21361428D01*
X10445714Y-21399523D01*
X10483809Y-21437619D01*
X10521904Y-21513809D01*
X10521904Y-21704285D01*
X10483809Y-21780476D01*
X10445714Y-21818571D01*
X10521904Y-24282380D02*
X10521904Y-24739523D01*
X10521904Y-24510952D02*
X9721904Y-24510952D01*
X9836190Y-24587142D01*
X9912380Y-24663333D01*
X9950476Y-24739523D01*
X9721904Y-24015714D02*
X9721904Y-23482380D01*
X10521904Y-23825238D01*
X10521904Y-26822380D02*
X10521904Y-27279523D01*
X10521904Y-27050952D02*
X9721904Y-27050952D01*
X9836190Y-27127142D01*
X9912380Y-27203333D01*
X9950476Y-27279523D01*
X9721904Y-26136666D02*
X9721904Y-26289047D01*
X9760000Y-26365238D01*
X9798095Y-26403333D01*
X9912380Y-26479523D01*
X10064761Y-26517619D01*
X10369523Y-26517619D01*
X10445714Y-26479523D01*
X10483809Y-26441428D01*
X10521904Y-26365238D01*
X10521904Y-26212857D01*
X10483809Y-26136666D01*
X10445714Y-26098571D01*
X10369523Y-26060476D01*
X10179047Y-26060476D01*
X10102857Y-26098571D01*
X10064761Y-26136666D01*
X10026666Y-26212857D01*
X10026666Y-26365238D01*
X10064761Y-26441428D01*
X10102857Y-26479523D01*
X10179047Y-26517619D01*
X9988571Y-29057619D02*
X10521904Y-29057619D01*
X9683809Y-29248095D02*
X10255238Y-29438571D01*
X10255238Y-28943333D01*
X9721904Y-31788095D02*
X9721904Y-31711904D01*
X9760000Y-31635714D01*
X9798095Y-31597619D01*
X9874285Y-31559523D01*
X10026666Y-31521428D01*
X10217142Y-31521428D01*
X10369523Y-31559523D01*
X10445714Y-31597619D01*
X10483809Y-31635714D01*
X10521904Y-31711904D01*
X10521904Y-31788095D01*
X10483809Y-31864285D01*
X10445714Y-31902380D01*
X10369523Y-31940476D01*
X10217142Y-31978571D01*
X10026666Y-31978571D01*
X9874285Y-31940476D01*
X9798095Y-31902380D01*
X9760000Y-31864285D01*
X9721904Y-31788095D01*
X9798095Y-34518571D02*
X9760000Y-34480476D01*
X9721904Y-34404285D01*
X9721904Y-34213809D01*
X9760000Y-34137619D01*
X9798095Y-34099523D01*
X9874285Y-34061428D01*
X9950476Y-34061428D01*
X10064761Y-34099523D01*
X10521904Y-34556666D01*
X10521904Y-34061428D01*
X10521904Y-36982380D02*
X10521904Y-37439523D01*
X10521904Y-37210952D02*
X9721904Y-37210952D01*
X9836190Y-37287142D01*
X9912380Y-37363333D01*
X9950476Y-37439523D01*
X9721904Y-36258571D02*
X9721904Y-36639523D01*
X10102857Y-36677619D01*
X10064761Y-36639523D01*
X10026666Y-36563333D01*
X10026666Y-36372857D01*
X10064761Y-36296666D01*
X10102857Y-36258571D01*
X10179047Y-36220476D01*
X10369523Y-36220476D01*
X10445714Y-36258571D01*
X10483809Y-36296666D01*
X10521904Y-36372857D01*
X10521904Y-36563333D01*
X10483809Y-36639523D01*
X10445714Y-36677619D01*
X-9760000Y-660476D02*
X-9721904Y-584285D01*
X-9721904Y-470000D01*
X-9760000Y-355714D01*
X-9836190Y-279523D01*
X-9912380Y-241428D01*
X-10064761Y-203333D01*
X-10179047Y-203333D01*
X-10331428Y-241428D01*
X-10407619Y-279523D01*
X-10483809Y-355714D01*
X-10521904Y-470000D01*
X-10521904Y-546190D01*
X-10483809Y-660476D01*
X-10445714Y-698571D01*
X-10179047Y-698571D01*
X-10179047Y-546190D01*
X-10521904Y-1041428D02*
X-9721904Y-1041428D01*
X-10521904Y-1498571D01*
X-9721904Y-1498571D01*
X-10521904Y-1879523D02*
X-9721904Y-1879523D01*
X-9721904Y-2070000D01*
X-9760000Y-2184285D01*
X-9836190Y-2260476D01*
X-9912380Y-2298571D01*
X-10064761Y-2336666D01*
X-10179047Y-2336666D01*
X-10331428Y-2298571D01*
X-10407619Y-2260476D01*
X-10483809Y-2184285D01*
X-10521904Y-2070000D01*
X-10521904Y-1879523D01*
X-9721904Y-2629047D02*
X-9721904Y-3124285D01*
X-10026666Y-2857619D01*
X-10026666Y-2971904D01*
X-10064761Y-3048095D01*
X-10102857Y-3086190D01*
X-10179047Y-3124285D01*
X-10369523Y-3124285D01*
X-10445714Y-3086190D01*
X-10483809Y-3048095D01*
X-10521904Y-2971904D01*
X-10521904Y-2743333D01*
X-10483809Y-2667142D01*
X-10445714Y-2629047D01*
X-10445714Y-3467142D02*
X-10483809Y-3505238D01*
X-10521904Y-3467142D01*
X-10483809Y-3429047D01*
X-10445714Y-3467142D01*
X-10521904Y-3467142D01*
X-9721904Y-3771904D02*
X-9721904Y-4267142D01*
X-10026666Y-4000476D01*
X-10026666Y-4114761D01*
X-10064761Y-4190952D01*
X-10102857Y-4229047D01*
X-10179047Y-4267142D01*
X-10369523Y-4267142D01*
X-10445714Y-4229047D01*
X-10483809Y-4190952D01*
X-10521904Y-4114761D01*
X-10521904Y-3886190D01*
X-10483809Y-3810000D01*
X-10445714Y-3771904D01*
X-9721904Y-4495714D02*
X-10521904Y-4762380D01*
X-9721904Y-5029047D01*
X-10102857Y-5759523D02*
X-10102857Y-6026190D01*
X-10521904Y-6140476D02*
X-10521904Y-5759523D01*
X-9721904Y-5759523D01*
X-9721904Y-6140476D01*
X-10521904Y-6483333D02*
X-9721904Y-6483333D01*
X-10521904Y-6940476D01*
X-9721904Y-6940476D01*
X-9721904Y-8242380D02*
X-9721904Y-8737619D01*
X-10026666Y-8470952D01*
X-10026666Y-8585238D01*
X-10064761Y-8661428D01*
X-10102857Y-8699523D01*
X-10179047Y-8737619D01*
X-10369523Y-8737619D01*
X-10445714Y-8699523D01*
X-10483809Y-8661428D01*
X-10521904Y-8585238D01*
X-10521904Y-8356666D01*
X-10483809Y-8280476D01*
X-10445714Y-8242380D01*
X-9721904Y-9423333D02*
X-9721904Y-9270952D01*
X-9760000Y-9194761D01*
X-9798095Y-9156666D01*
X-9912380Y-9080476D01*
X-10064761Y-9042380D01*
X-10369523Y-9042380D01*
X-10445714Y-9080476D01*
X-10483809Y-9118571D01*
X-10521904Y-9194761D01*
X-10521904Y-9347142D01*
X-10483809Y-9423333D01*
X-10445714Y-9461428D01*
X-10369523Y-9499523D01*
X-10179047Y-9499523D01*
X-10102857Y-9461428D01*
X-10064761Y-9423333D01*
X-10026666Y-9347142D01*
X-10026666Y-9194761D01*
X-10064761Y-9118571D01*
X-10102857Y-9080476D01*
X-10179047Y-9042380D01*
X-9721904Y-10782380D02*
X-9721904Y-11277619D01*
X-10026666Y-11010952D01*
X-10026666Y-11125238D01*
X-10064761Y-11201428D01*
X-10102857Y-11239523D01*
X-10179047Y-11277619D01*
X-10369523Y-11277619D01*
X-10445714Y-11239523D01*
X-10483809Y-11201428D01*
X-10521904Y-11125238D01*
X-10521904Y-10896666D01*
X-10483809Y-10820476D01*
X-10445714Y-10782380D01*
X-10521904Y-11658571D02*
X-10521904Y-11810952D01*
X-10483809Y-11887142D01*
X-10445714Y-11925238D01*
X-10331428Y-12001428D01*
X-10179047Y-12039523D01*
X-9874285Y-12039523D01*
X-9798095Y-12001428D01*
X-9760000Y-11963333D01*
X-9721904Y-11887142D01*
X-9721904Y-11734761D01*
X-9760000Y-11658571D01*
X-9798095Y-11620476D01*
X-9874285Y-11582380D01*
X-10064761Y-11582380D01*
X-10140952Y-11620476D01*
X-10179047Y-11658571D01*
X-10217142Y-11734761D01*
X-10217142Y-11887142D01*
X-10179047Y-11963333D01*
X-10140952Y-12001428D01*
X-10064761Y-12039523D01*
X-9721904Y-13322380D02*
X-9721904Y-13817619D01*
X-10026666Y-13550952D01*
X-10026666Y-13665238D01*
X-10064761Y-13741428D01*
X-10102857Y-13779523D01*
X-10179047Y-13817619D01*
X-10369523Y-13817619D01*
X-10445714Y-13779523D01*
X-10483809Y-13741428D01*
X-10521904Y-13665238D01*
X-10521904Y-13436666D01*
X-10483809Y-13360476D01*
X-10445714Y-13322380D01*
X-9988571Y-14503333D02*
X-10521904Y-14503333D01*
X-9683809Y-14312857D02*
X-10255238Y-14122380D01*
X-10255238Y-14617619D01*
X-9721904Y-15862380D02*
X-9721904Y-16357619D01*
X-10026666Y-16090952D01*
X-10026666Y-16205238D01*
X-10064761Y-16281428D01*
X-10102857Y-16319523D01*
X-10179047Y-16357619D01*
X-10369523Y-16357619D01*
X-10445714Y-16319523D01*
X-10483809Y-16281428D01*
X-10521904Y-16205238D01*
X-10521904Y-15976666D01*
X-10483809Y-15900476D01*
X-10445714Y-15862380D01*
X-9721904Y-17081428D02*
X-9721904Y-16700476D01*
X-10102857Y-16662380D01*
X-10064761Y-16700476D01*
X-10026666Y-16776666D01*
X-10026666Y-16967142D01*
X-10064761Y-17043333D01*
X-10102857Y-17081428D01*
X-10179047Y-17119523D01*
X-10369523Y-17119523D01*
X-10445714Y-17081428D01*
X-10483809Y-17043333D01*
X-10521904Y-16967142D01*
X-10521904Y-16776666D01*
X-10483809Y-16700476D01*
X-10445714Y-16662380D01*
X-9721904Y-18402380D02*
X-9721904Y-18897619D01*
X-10026666Y-18630952D01*
X-10026666Y-18745238D01*
X-10064761Y-18821428D01*
X-10102857Y-18859523D01*
X-10179047Y-18897619D01*
X-10369523Y-18897619D01*
X-10445714Y-18859523D01*
X-10483809Y-18821428D01*
X-10521904Y-18745238D01*
X-10521904Y-18516666D01*
X-10483809Y-18440476D01*
X-10445714Y-18402380D01*
X-9798095Y-19202380D02*
X-9760000Y-19240476D01*
X-9721904Y-19316666D01*
X-9721904Y-19507142D01*
X-9760000Y-19583333D01*
X-9798095Y-19621428D01*
X-9874285Y-19659523D01*
X-9950476Y-19659523D01*
X-10064761Y-19621428D01*
X-10521904Y-19164285D01*
X-10521904Y-19659523D01*
X-9721904Y-20942380D02*
X-9721904Y-21437619D01*
X-10026666Y-21170952D01*
X-10026666Y-21285238D01*
X-10064761Y-21361428D01*
X-10102857Y-21399523D01*
X-10179047Y-21437619D01*
X-10369523Y-21437619D01*
X-10445714Y-21399523D01*
X-10483809Y-21361428D01*
X-10521904Y-21285238D01*
X-10521904Y-21056666D01*
X-10483809Y-20980476D01*
X-10445714Y-20942380D01*
X-9721904Y-21704285D02*
X-9721904Y-22199523D01*
X-10026666Y-21932857D01*
X-10026666Y-22047142D01*
X-10064761Y-22123333D01*
X-10102857Y-22161428D01*
X-10179047Y-22199523D01*
X-10369523Y-22199523D01*
X-10445714Y-22161428D01*
X-10483809Y-22123333D01*
X-10521904Y-22047142D01*
X-10521904Y-21818571D01*
X-10483809Y-21742380D01*
X-10445714Y-21704285D01*
X-9798095Y-23520476D02*
X-9760000Y-23558571D01*
X-9721904Y-23634761D01*
X-9721904Y-23825238D01*
X-9760000Y-23901428D01*
X-9798095Y-23939523D01*
X-9874285Y-23977619D01*
X-9950476Y-23977619D01*
X-10064761Y-23939523D01*
X-10521904Y-23482380D01*
X-10521904Y-23977619D01*
X-9721904Y-24701428D02*
X-9721904Y-24320476D01*
X-10102857Y-24282380D01*
X-10064761Y-24320476D01*
X-10026666Y-24396666D01*
X-10026666Y-24587142D01*
X-10064761Y-24663333D01*
X-10102857Y-24701428D01*
X-10179047Y-24739523D01*
X-10369523Y-24739523D01*
X-10445714Y-24701428D01*
X-10483809Y-24663333D01*
X-10521904Y-24587142D01*
X-10521904Y-24396666D01*
X-10483809Y-24320476D01*
X-10445714Y-24282380D01*
X-9798095Y-26060476D02*
X-9760000Y-26098571D01*
X-9721904Y-26174761D01*
X-9721904Y-26365238D01*
X-9760000Y-26441428D01*
X-9798095Y-26479523D01*
X-9874285Y-26517619D01*
X-9950476Y-26517619D01*
X-10064761Y-26479523D01*
X-10521904Y-26022380D01*
X-10521904Y-26517619D01*
X-9721904Y-27203333D02*
X-9721904Y-27050952D01*
X-9760000Y-26974761D01*
X-9798095Y-26936666D01*
X-9912380Y-26860476D01*
X-10064761Y-26822380D01*
X-10369523Y-26822380D01*
X-10445714Y-26860476D01*
X-10483809Y-26898571D01*
X-10521904Y-26974761D01*
X-10521904Y-27127142D01*
X-10483809Y-27203333D01*
X-10445714Y-27241428D01*
X-10369523Y-27279523D01*
X-10179047Y-27279523D01*
X-10102857Y-27241428D01*
X-10064761Y-27203333D01*
X-10026666Y-27127142D01*
X-10026666Y-26974761D01*
X-10064761Y-26898571D01*
X-10102857Y-26860476D01*
X-10179047Y-26822380D01*
X-9798095Y-28600476D02*
X-9760000Y-28638571D01*
X-9721904Y-28714761D01*
X-9721904Y-28905238D01*
X-9760000Y-28981428D01*
X-9798095Y-29019523D01*
X-9874285Y-29057619D01*
X-9950476Y-29057619D01*
X-10064761Y-29019523D01*
X-10521904Y-28562380D01*
X-10521904Y-29057619D01*
X-9721904Y-29324285D02*
X-9721904Y-29857619D01*
X-10521904Y-29514761D01*
X-10521904Y-31597619D02*
X-10521904Y-31140476D01*
X-10521904Y-31369047D02*
X-9721904Y-31369047D01*
X-9836190Y-31292857D01*
X-9912380Y-31216666D01*
X-9950476Y-31140476D01*
X-9988571Y-32283333D02*
X-10521904Y-32283333D01*
X-9683809Y-32092857D02*
X-10255238Y-31902380D01*
X-10255238Y-32397619D01*
X-10521904Y-34137619D02*
X-10521904Y-33680476D01*
X-10521904Y-33909047D02*
X-9721904Y-33909047D01*
X-9836190Y-33832857D01*
X-9912380Y-33756666D01*
X-9950476Y-33680476D01*
X-9798095Y-34442380D02*
X-9760000Y-34480476D01*
X-9721904Y-34556666D01*
X-9721904Y-34747142D01*
X-9760000Y-34823333D01*
X-9798095Y-34861428D01*
X-9874285Y-34899523D01*
X-9950476Y-34899523D01*
X-10064761Y-34861428D01*
X-10521904Y-34404285D01*
X-10521904Y-34899523D01*
X-10521904Y-36677619D02*
X-10521904Y-36220476D01*
X-10521904Y-36449047D02*
X-9721904Y-36449047D01*
X-9836190Y-36372857D01*
X-9912380Y-36296666D01*
X-9950476Y-36220476D01*
X-9721904Y-36944285D02*
X-9721904Y-37439523D01*
X-10026666Y-37172857D01*
X-10026666Y-37287142D01*
X-10064761Y-37363333D01*
X-10102857Y-37401428D01*
X-10179047Y-37439523D01*
X-10369523Y-37439523D01*
X-10445714Y-37401428D01*
X-10483809Y-37363333D01*
X-10521904Y-37287142D01*
X-10521904Y-37058571D01*
X-10483809Y-36982380D01*
X-10445714Y-36944285D01*
D11*
X-6000000Y-33743571D02*
X-6000000Y-32243571D01*
X-5642857Y-32243571D01*
X-5428571Y-32315000D01*
X-5285714Y-32457857D01*
X-5214285Y-32600714D01*
X-5142857Y-32886428D01*
X-5142857Y-33100714D01*
X-5214285Y-33386428D01*
X-5285714Y-33529285D01*
X-5428571Y-33672142D01*
X-5642857Y-33743571D01*
X-6000000Y-33743571D01*
X-4500000Y-33743571D02*
X-4500000Y-32243571D01*
X-3785714Y-33743571D02*
X-3785714Y-32243571D01*
X-3214285Y-32243571D01*
X-3071428Y-32315000D01*
X-3000000Y-32386428D01*
X-2928571Y-32529285D01*
X-2928571Y-32743571D01*
X-3000000Y-32886428D01*
X-3071428Y-32957857D01*
X-3214285Y-33029285D01*
X-3785714Y-33029285D01*
X-2285714Y-33172142D02*
X-1142857Y-33172142D01*
X-428571Y-32957857D02*
X71428Y-32957857D01*
X285714Y-33743571D02*
X-428571Y-33743571D01*
X-428571Y-32243571D01*
X285714Y-32243571D01*
X857142Y-33672142D02*
X1071428Y-33743571D01*
X1428571Y-33743571D01*
X1571428Y-33672142D01*
X1642857Y-33600714D01*
X1714285Y-33457857D01*
X1714285Y-33315000D01*
X1642857Y-33172142D01*
X1571428Y-33100714D01*
X1428571Y-33029285D01*
X1142857Y-32957857D01*
X999999Y-32886428D01*
X928571Y-32815000D01*
X857142Y-32672142D01*
X857142Y-32529285D01*
X928571Y-32386428D01*
X999999Y-32315000D01*
X1142857Y-32243571D01*
X1499999Y-32243571D01*
X1714285Y-32315000D01*
X2357142Y-33743571D02*
X2357142Y-32243571D01*
X2928571Y-32243571D01*
X3071428Y-32315000D01*
X3142857Y-32386428D01*
X3214285Y-32529285D01*
X3214285Y-32743571D01*
X3142857Y-32886428D01*
X3071428Y-32957857D01*
X2928571Y-33029285D01*
X2357142Y-33029285D01*
X3714285Y-32243571D02*
X4642857Y-32243571D01*
X4142857Y-32815000D01*
X4357142Y-32815000D01*
X4499999Y-32886428D01*
X4571428Y-32957857D01*
X4642857Y-33100714D01*
X4642857Y-33457857D01*
X4571428Y-33600714D01*
X4499999Y-33672142D01*
X4357142Y-33743571D01*
X3928571Y-33743571D01*
X3785714Y-33672142D01*
X3714285Y-33600714D01*
X5214285Y-32386428D02*
X5285714Y-32315000D01*
X5428571Y-32243571D01*
X5785714Y-32243571D01*
X5928571Y-32315000D01*
X5999999Y-32386428D01*
X6071428Y-32529285D01*
X6071428Y-32672142D01*
X5999999Y-32886428D01*
X5142857Y-33743571D01*
X6071428Y-33743571D01*
X-2285714Y-34693571D02*
X-1785714Y-36193571D01*
X-1285714Y-34693571D01*
X0Y-36193571D02*
X-857142Y-36193571D01*
X-428571Y-36193571D02*
X-428571Y-34693571D01*
X-571428Y-34907857D01*
X-714285Y-35050714D01*
X-857142Y-35122142D01*
X642857Y-36050714D02*
X714285Y-36122142D01*
X642857Y-36193571D01*
X571428Y-36122142D01*
X642857Y-36050714D01*
X642857Y-36193571D01*
X1642857Y-34693571D02*
X1785714Y-34693571D01*
X1928571Y-34765000D01*
X1999999Y-34836428D01*
X2071428Y-34979285D01*
X2142857Y-35265000D01*
X2142857Y-35622142D01*
X2071428Y-35907857D01*
X1999999Y-36050714D01*
X1928571Y-36122142D01*
X1785714Y-36193571D01*
X1642857Y-36193571D01*
X1499999Y-36122142D01*
X1428571Y-36050714D01*
X1357142Y-35907857D01*
X1285714Y-35622142D01*
X1285714Y-35265000D01*
X1357142Y-34979285D01*
X1428571Y-34836428D01*
X1499999Y-34765000D01*
X1642857Y-34693571D01*
D10*
X-9120000Y-19100000D02*
X-9120000Y-19880000D01*
X-9120000Y-19880000D02*
X-8120000Y-19880000D01*
X9120000Y-19100000D02*
X9120000Y-19880000D01*
X9120000Y-19880000D02*
X8120000Y-19880000D01*
M02*
