G04 #@! TF.GenerationSoftware,KiCad,Pcbnew,(5.1.10-1-10_14)*
G04 #@! TF.CreationDate,2021-12-01T23:11:49+09:00*
G04 #@! TF.ProjectId,DIP-ESP32,4449502d-4553-4503-9332-2e6b69636164,V1.0*
G04 #@! TF.SameCoordinates,Original*
G04 #@! TF.FileFunction,Soldermask,Bot*
G04 #@! TF.FilePolarity,Negative*
%FSLAX46Y46*%
G04 Gerber Fmt 4.6, Leading zero omitted, Abs format (unit mm)*
G04 Created by KiCad (PCBNEW (5.1.10-1-10_14)) date 2021-12-01 23:11:49*
%MOMM*%
%LPD*%
G01*
G04 APERTURE LIST*
%ADD10R,1.200000X1.800000*%
%ADD11C,0.100000*%
%ADD12C,1.400000*%
%ADD13R,1.400000X1.400000*%
G04 APERTURE END LIST*
D10*
X-4650000Y-13900000D03*
X-2050000Y-13900000D03*
G36*
G01*
X-4650000Y-12250000D02*
X-4650000Y-11850000D01*
G75*
G02*
X-4450000Y-11650000I200000J0D01*
G01*
X-3950000Y-11650000D01*
G75*
G02*
X-3750000Y-11850000I0J-200000D01*
G01*
X-3750000Y-12250000D01*
G75*
G02*
X-3950000Y-12450000I-200000J0D01*
G01*
X-4450000Y-12450000D01*
G75*
G02*
X-4650000Y-12250000I0J200000D01*
G01*
G37*
G36*
G01*
X-2950000Y-12250000D02*
X-2950000Y-11850000D01*
G75*
G02*
X-2750000Y-11650000I200000J0D01*
G01*
X-2250000Y-11650000D01*
G75*
G02*
X-2050000Y-11850000I0J-200000D01*
G01*
X-2050000Y-12250000D01*
G75*
G02*
X-2250000Y-12450000I-200000J0D01*
G01*
X-2750000Y-12450000D01*
G75*
G02*
X-2950000Y-12250000I0J200000D01*
G01*
G37*
D11*
G36*
X-7900000Y-11500000D02*
G01*
X-7600000Y-11500000D01*
X-7600000Y-11500361D01*
X-7585280Y-11500361D01*
X-7555981Y-11503247D01*
X-7527106Y-11508991D01*
X-7498933Y-11517537D01*
X-7471733Y-11528803D01*
X-7445769Y-11542681D01*
X-7421290Y-11559038D01*
X-7398532Y-11577715D01*
X-7377715Y-11598532D01*
X-7359038Y-11621290D01*
X-7342681Y-11645769D01*
X-7328803Y-11671733D01*
X-7317537Y-11698933D01*
X-7308991Y-11727106D01*
X-7304437Y-11750000D01*
X-7300000Y-11750000D01*
X-7300000Y-12250000D01*
X-7304437Y-12250000D01*
X-7308991Y-12272894D01*
X-7317537Y-12301067D01*
X-7328803Y-12328267D01*
X-7342681Y-12354231D01*
X-7359038Y-12378710D01*
X-7377715Y-12401468D01*
X-7398532Y-12422285D01*
X-7421290Y-12440962D01*
X-7445769Y-12457319D01*
X-7471733Y-12471197D01*
X-7498933Y-12482463D01*
X-7527106Y-12491009D01*
X-7555981Y-12496753D01*
X-7585280Y-12499639D01*
X-7600000Y-12499639D01*
X-7600000Y-12500000D01*
X-7900000Y-12500000D01*
X-7900000Y-11500000D01*
G37*
G36*
X-8600000Y-12499639D02*
G01*
X-8614720Y-12499639D01*
X-8644019Y-12496753D01*
X-8672894Y-12491009D01*
X-8701067Y-12482463D01*
X-8728267Y-12471197D01*
X-8754231Y-12457319D01*
X-8778710Y-12440962D01*
X-8801468Y-12422285D01*
X-8822285Y-12401468D01*
X-8840962Y-12378710D01*
X-8857319Y-12354231D01*
X-8871197Y-12328267D01*
X-8882463Y-12301067D01*
X-8891009Y-12272894D01*
X-8895563Y-12250000D01*
X-8900000Y-12250000D01*
X-8900000Y-11750000D01*
X-8895563Y-11750000D01*
X-8891009Y-11727106D01*
X-8882463Y-11698933D01*
X-8871197Y-11671733D01*
X-8857319Y-11645769D01*
X-8840962Y-11621290D01*
X-8822285Y-11598532D01*
X-8801468Y-11577715D01*
X-8778710Y-11559038D01*
X-8754231Y-11542681D01*
X-8728267Y-11528803D01*
X-8701067Y-11517537D01*
X-8672894Y-11508991D01*
X-8644019Y-11503247D01*
X-8614720Y-11500361D01*
X-8600000Y-11500361D01*
X-8600000Y-11500000D01*
X-8300000Y-11500000D01*
X-8300000Y-12500000D01*
X-8600000Y-12500000D01*
X-8600000Y-12499639D01*
G37*
G36*
X-7900000Y-10100000D02*
G01*
X-7600000Y-10100000D01*
X-7600000Y-10100361D01*
X-7585280Y-10100361D01*
X-7555981Y-10103247D01*
X-7527106Y-10108991D01*
X-7498933Y-10117537D01*
X-7471733Y-10128803D01*
X-7445769Y-10142681D01*
X-7421290Y-10159038D01*
X-7398532Y-10177715D01*
X-7377715Y-10198532D01*
X-7359038Y-10221290D01*
X-7342681Y-10245769D01*
X-7328803Y-10271733D01*
X-7317537Y-10298933D01*
X-7308991Y-10327106D01*
X-7304437Y-10350000D01*
X-7300000Y-10350000D01*
X-7300000Y-10850000D01*
X-7304437Y-10850000D01*
X-7308991Y-10872894D01*
X-7317537Y-10901067D01*
X-7328803Y-10928267D01*
X-7342681Y-10954231D01*
X-7359038Y-10978710D01*
X-7377715Y-11001468D01*
X-7398532Y-11022285D01*
X-7421290Y-11040962D01*
X-7445769Y-11057319D01*
X-7471733Y-11071197D01*
X-7498933Y-11082463D01*
X-7527106Y-11091009D01*
X-7555981Y-11096753D01*
X-7585280Y-11099639D01*
X-7600000Y-11099639D01*
X-7600000Y-11100000D01*
X-7900000Y-11100000D01*
X-7900000Y-10100000D01*
G37*
G36*
X-8600000Y-11099639D02*
G01*
X-8614720Y-11099639D01*
X-8644019Y-11096753D01*
X-8672894Y-11091009D01*
X-8701067Y-11082463D01*
X-8728267Y-11071197D01*
X-8754231Y-11057319D01*
X-8778710Y-11040962D01*
X-8801468Y-11022285D01*
X-8822285Y-11001468D01*
X-8840962Y-10978710D01*
X-8857319Y-10954231D01*
X-8871197Y-10928267D01*
X-8882463Y-10901067D01*
X-8891009Y-10872894D01*
X-8895563Y-10850000D01*
X-8900000Y-10850000D01*
X-8900000Y-10350000D01*
X-8895563Y-10350000D01*
X-8891009Y-10327106D01*
X-8882463Y-10298933D01*
X-8871197Y-10271733D01*
X-8857319Y-10245769D01*
X-8840962Y-10221290D01*
X-8822285Y-10198532D01*
X-8801468Y-10177715D01*
X-8778710Y-10159038D01*
X-8754231Y-10142681D01*
X-8728267Y-10128803D01*
X-8701067Y-10117537D01*
X-8672894Y-10108991D01*
X-8644019Y-10103247D01*
X-8614720Y-10100361D01*
X-8600000Y-10100361D01*
X-8600000Y-10100000D01*
X-8300000Y-10100000D01*
X-8300000Y-11100000D01*
X-8600000Y-11100000D01*
X-8600000Y-11099639D01*
G37*
G36*
G01*
X-5250000Y-15650000D02*
X-5250000Y-15350000D01*
G75*
G02*
X-5100000Y-15200000I150000J0D01*
G01*
X-4800000Y-15200000D01*
G75*
G02*
X-4650000Y-15350000I0J-150000D01*
G01*
X-4650000Y-15650000D01*
G75*
G02*
X-4800000Y-15800000I-150000J0D01*
G01*
X-5100000Y-15800000D01*
G75*
G02*
X-5250000Y-15650000I0J150000D01*
G01*
G37*
G36*
G01*
X-4250000Y-15650000D02*
X-4250000Y-15350000D01*
G75*
G02*
X-4100000Y-15200000I150000J0D01*
G01*
X-3800000Y-15200000D01*
G75*
G02*
X-3650000Y-15350000I0J-150000D01*
G01*
X-3650000Y-15650000D01*
G75*
G02*
X-3800000Y-15800000I-150000J0D01*
G01*
X-4100000Y-15800000D01*
G75*
G02*
X-4250000Y-15650000I0J150000D01*
G01*
G37*
G36*
G01*
X-1450000Y-15350000D02*
X-1450000Y-15650000D01*
G75*
G02*
X-1600000Y-15800000I-150000J0D01*
G01*
X-1900000Y-15800000D01*
G75*
G02*
X-2050000Y-15650000I0J150000D01*
G01*
X-2050000Y-15350000D01*
G75*
G02*
X-1900000Y-15200000I150000J0D01*
G01*
X-1600000Y-15200000D01*
G75*
G02*
X-1450000Y-15350000I0J-150000D01*
G01*
G37*
G36*
G01*
X-2450000Y-15350000D02*
X-2450000Y-15650000D01*
G75*
G02*
X-2600000Y-15800000I-150000J0D01*
G01*
X-2900000Y-15800000D01*
G75*
G02*
X-3050000Y-15650000I0J150000D01*
G01*
X-3050000Y-15350000D01*
G75*
G02*
X-2900000Y-15200000I150000J0D01*
G01*
X-2600000Y-15200000D01*
G75*
G02*
X-2450000Y-15350000I0J-150000D01*
G01*
G37*
G36*
G01*
X1700000Y-9300000D02*
X1300000Y-9300000D01*
G75*
G02*
X1100000Y-9100000I0J200000D01*
G01*
X1100000Y-8600000D01*
G75*
G02*
X1300000Y-8400000I200000J0D01*
G01*
X1700000Y-8400000D01*
G75*
G02*
X1900000Y-8600000I0J-200000D01*
G01*
X1900000Y-9100000D01*
G75*
G02*
X1700000Y-9300000I-200000J0D01*
G01*
G37*
G36*
G01*
X1700000Y-7600000D02*
X1300000Y-7600000D01*
G75*
G02*
X1100000Y-7400000I0J200000D01*
G01*
X1100000Y-6900000D01*
G75*
G02*
X1300000Y-6700000I200000J0D01*
G01*
X1700000Y-6700000D01*
G75*
G02*
X1900000Y-6900000I0J-200000D01*
G01*
X1900000Y-7400000D01*
G75*
G02*
X1700000Y-7600000I-200000J0D01*
G01*
G37*
G36*
G01*
X4300000Y-6700000D02*
X4700000Y-6700000D01*
G75*
G02*
X4900000Y-6900000I0J-200000D01*
G01*
X4900000Y-7400000D01*
G75*
G02*
X4700000Y-7600000I-200000J0D01*
G01*
X4300000Y-7600000D01*
G75*
G02*
X4100000Y-7400000I0J200000D01*
G01*
X4100000Y-6900000D01*
G75*
G02*
X4300000Y-6700000I200000J0D01*
G01*
G37*
G36*
G01*
X4300000Y-8400000D02*
X4700000Y-8400000D01*
G75*
G02*
X4900000Y-8600000I0J-200000D01*
G01*
X4900000Y-9100000D01*
G75*
G02*
X4700000Y-9300000I-200000J0D01*
G01*
X4300000Y-9300000D01*
G75*
G02*
X4100000Y-9100000I0J200000D01*
G01*
X4100000Y-8600000D01*
G75*
G02*
X4300000Y-8400000I200000J0D01*
G01*
G37*
G36*
G01*
X-4700000Y-6700000D02*
X-4300000Y-6700000D01*
G75*
G02*
X-4100000Y-6900000I0J-200000D01*
G01*
X-4100000Y-7400000D01*
G75*
G02*
X-4300000Y-7600000I-200000J0D01*
G01*
X-4700000Y-7600000D01*
G75*
G02*
X-4900000Y-7400000I0J200000D01*
G01*
X-4900000Y-6900000D01*
G75*
G02*
X-4700000Y-6700000I200000J0D01*
G01*
G37*
G36*
G01*
X-4700000Y-8400000D02*
X-4300000Y-8400000D01*
G75*
G02*
X-4100000Y-8600000I0J-200000D01*
G01*
X-4100000Y-9100000D01*
G75*
G02*
X-4300000Y-9300000I-200000J0D01*
G01*
X-4700000Y-9300000D01*
G75*
G02*
X-4900000Y-9100000I0J200000D01*
G01*
X-4900000Y-8600000D01*
G75*
G02*
X-4700000Y-8400000I200000J0D01*
G01*
G37*
D12*
X11430000Y-34290000D03*
D13*
X11430000Y-1270000D03*
D12*
X11430000Y-3810000D03*
X11430000Y-6350000D03*
X11430000Y-8890000D03*
X11430000Y-11430000D03*
X11430000Y-13970000D03*
X11430000Y-16510000D03*
X11430000Y-19050000D03*
X11430000Y-21590000D03*
X11430000Y-24130000D03*
X11430000Y-26670000D03*
X11430000Y-29210000D03*
X11430000Y-31750000D03*
X11430000Y-36830000D03*
X-11430000Y-36830000D03*
X-11430000Y-34290000D03*
X-11430000Y-31750000D03*
X-11430000Y-29210000D03*
X-11430000Y-26670000D03*
X-11430000Y-24130000D03*
X-11430000Y-21590000D03*
X-11430000Y-19050000D03*
X-11430000Y-16510000D03*
X-11430000Y-13970000D03*
X-11430000Y-11430000D03*
X-11430000Y-8890000D03*
X-11430000Y-6350000D03*
X-11430000Y-3810000D03*
D13*
X-11430000Y-1270000D03*
G36*
G01*
X-1300000Y-9300000D02*
X-1700000Y-9300000D01*
G75*
G02*
X-1900000Y-9100000I0J200000D01*
G01*
X-1900000Y-8600000D01*
G75*
G02*
X-1700000Y-8400000I200000J0D01*
G01*
X-1300000Y-8400000D01*
G75*
G02*
X-1100000Y-8600000I0J-200000D01*
G01*
X-1100000Y-9100000D01*
G75*
G02*
X-1300000Y-9300000I-200000J0D01*
G01*
G37*
G36*
G01*
X-1300000Y-7600000D02*
X-1700000Y-7600000D01*
G75*
G02*
X-1900000Y-7400000I0J200000D01*
G01*
X-1900000Y-6900000D01*
G75*
G02*
X-1700000Y-6700000I200000J0D01*
G01*
X-1300000Y-6700000D01*
G75*
G02*
X-1100000Y-6900000I0J-200000D01*
G01*
X-1100000Y-7400000D01*
G75*
G02*
X-1300000Y-7600000I-200000J0D01*
G01*
G37*
G36*
G01*
X-1300000Y-5300000D02*
X-1700000Y-5300000D01*
G75*
G02*
X-1900000Y-5100000I0J200000D01*
G01*
X-1900000Y-4600000D01*
G75*
G02*
X-1700000Y-4400000I200000J0D01*
G01*
X-1300000Y-4400000D01*
G75*
G02*
X-1100000Y-4600000I0J-200000D01*
G01*
X-1100000Y-5100000D01*
G75*
G02*
X-1300000Y-5300000I-200000J0D01*
G01*
G37*
G36*
G01*
X-1300000Y-3600000D02*
X-1700000Y-3600000D01*
G75*
G02*
X-1900000Y-3400000I0J200000D01*
G01*
X-1900000Y-2900000D01*
G75*
G02*
X-1700000Y-2700000I200000J0D01*
G01*
X-1300000Y-2700000D01*
G75*
G02*
X-1100000Y-2900000I0J-200000D01*
G01*
X-1100000Y-3400000D01*
G75*
G02*
X-1300000Y-3600000I-200000J0D01*
G01*
G37*
G36*
G01*
X-4300000Y-5300000D02*
X-4700000Y-5300000D01*
G75*
G02*
X-4900000Y-5100000I0J200000D01*
G01*
X-4900000Y-4600000D01*
G75*
G02*
X-4700000Y-4400000I200000J0D01*
G01*
X-4300000Y-4400000D01*
G75*
G02*
X-4100000Y-4600000I0J-200000D01*
G01*
X-4100000Y-5100000D01*
G75*
G02*
X-4300000Y-5300000I-200000J0D01*
G01*
G37*
G36*
G01*
X-4300000Y-3600000D02*
X-4700000Y-3600000D01*
G75*
G02*
X-4900000Y-3400000I0J200000D01*
G01*
X-4900000Y-2900000D01*
G75*
G02*
X-4700000Y-2700000I200000J0D01*
G01*
X-4300000Y-2700000D01*
G75*
G02*
X-4100000Y-2900000I0J-200000D01*
G01*
X-4100000Y-3400000D01*
G75*
G02*
X-4300000Y-3600000I-200000J0D01*
G01*
G37*
M02*
