G04 #@! TF.GenerationSoftware,KiCad,Pcbnew,(5.1.10-1-10_14)*
G04 #@! TF.CreationDate,2021-12-01T23:11:49+09:00*
G04 #@! TF.ProjectId,DIP-ESP32,4449502d-4553-4503-9332-2e6b69636164,V1.0*
G04 #@! TF.SameCoordinates,Original*
G04 #@! TF.FileFunction,Legend,Bot*
G04 #@! TF.FilePolarity,Positive*
%FSLAX46Y46*%
G04 Gerber Fmt 4.6, Leading zero omitted, Abs format (unit mm)*
G04 Created by KiCad (PCBNEW (5.1.10-1-10_14)) date 2021-12-01 23:11:49*
%MOMM*%
%LPD*%
G01*
G04 APERTURE LIST*
%ADD10C,0.150000*%
%ADD11C,0.120000*%
G04 APERTURE END LIST*
D10*
X6452380Y-5595238D02*
X5452380Y-5595238D01*
X5452380Y-6261904D02*
X5452380Y-6452380D01*
X5500000Y-6547619D01*
X5595238Y-6642857D01*
X5785714Y-6690476D01*
X6119047Y-6690476D01*
X6309523Y-6642857D01*
X6404761Y-6547619D01*
X6452380Y-6452380D01*
X6452380Y-6261904D01*
X6404761Y-6166666D01*
X6309523Y-6071428D01*
X6119047Y-6023809D01*
X5785714Y-6023809D01*
X5595238Y-6071428D01*
X5500000Y-6166666D01*
X5452380Y-6261904D01*
X5452380Y-7309523D02*
X5452380Y-7404761D01*
X5500000Y-7500000D01*
X5547619Y-7547619D01*
X5642857Y-7595238D01*
X5833333Y-7642857D01*
X6071428Y-7642857D01*
X6261904Y-7595238D01*
X6357142Y-7547619D01*
X6404761Y-7500000D01*
X6452380Y-7404761D01*
X6452380Y-7309523D01*
X6404761Y-7214285D01*
X6357142Y-7166666D01*
X6261904Y-7119047D01*
X6071428Y-7071428D01*
X5833333Y-7071428D01*
X5642857Y-7119047D01*
X5547619Y-7166666D01*
X5500000Y-7214285D01*
X5452380Y-7309523D01*
X6452380Y-8833333D02*
X5452380Y-8833333D01*
X5452380Y-9214285D01*
X5500000Y-9309523D01*
X5547619Y-9357142D01*
X5642857Y-9404761D01*
X5785714Y-9404761D01*
X5880952Y-9357142D01*
X5928571Y-9309523D01*
X5976190Y-9214285D01*
X5976190Y-8833333D01*
X5452380Y-9833333D02*
X6261904Y-9833333D01*
X6357142Y-9880952D01*
X6404761Y-9928571D01*
X6452380Y-10023809D01*
X6452380Y-10214285D01*
X6404761Y-10309523D01*
X6357142Y-10357142D01*
X6261904Y-10404761D01*
X5452380Y-10404761D01*
X3452380Y-5619047D02*
X2452380Y-5619047D01*
X2452380Y-6285714D02*
X2452380Y-6476190D01*
X2500000Y-6571428D01*
X2595238Y-6666666D01*
X2785714Y-6714285D01*
X3119047Y-6714285D01*
X3309523Y-6666666D01*
X3404761Y-6571428D01*
X3452380Y-6476190D01*
X3452380Y-6285714D01*
X3404761Y-6190476D01*
X3309523Y-6095238D01*
X3119047Y-6047619D01*
X2785714Y-6047619D01*
X2595238Y-6095238D01*
X2500000Y-6190476D01*
X2452380Y-6285714D01*
X2547619Y-7095238D02*
X2500000Y-7142857D01*
X2452380Y-7238095D01*
X2452380Y-7476190D01*
X2500000Y-7571428D01*
X2547619Y-7619047D01*
X2642857Y-7666666D01*
X2738095Y-7666666D01*
X2880952Y-7619047D01*
X3452380Y-7047619D01*
X3452380Y-7666666D01*
X3452380Y-8857142D02*
X2452380Y-8857142D01*
X2452380Y-9238095D01*
X2500000Y-9333333D01*
X2547619Y-9380952D01*
X2642857Y-9428571D01*
X2785714Y-9428571D01*
X2880952Y-9380952D01*
X2928571Y-9333333D01*
X2976190Y-9238095D01*
X2976190Y-8857142D01*
X3452380Y-9857142D02*
X2452380Y-9857142D01*
X2452380Y-10095238D01*
X2500000Y-10238095D01*
X2595238Y-10333333D01*
X2690476Y-10380952D01*
X2880952Y-10428571D01*
X3023809Y-10428571D01*
X3214285Y-10380952D01*
X3309523Y-10333333D01*
X3404761Y-10238095D01*
X3452380Y-10095238D01*
X3452380Y-9857142D01*
X-3071428Y-5857142D02*
X-3071428Y-6190476D01*
X-2547619Y-6333333D02*
X-2547619Y-5857142D01*
X-3547619Y-5857142D01*
X-3547619Y-6333333D01*
X-2547619Y-6761904D02*
X-3547619Y-6761904D01*
X-2547619Y-7333333D01*
X-3547619Y-7333333D01*
X-2547619Y-8571428D02*
X-3547619Y-8571428D01*
X-3547619Y-8952380D01*
X-3500000Y-9047619D01*
X-3452380Y-9095238D01*
X-3357142Y-9142857D01*
X-3214285Y-9142857D01*
X-3119047Y-9095238D01*
X-3071428Y-9047619D01*
X-3023809Y-8952380D01*
X-3023809Y-8571428D01*
X-3547619Y-9571428D02*
X-2738095Y-9571428D01*
X-2642857Y-9619047D01*
X-2595238Y-9666666D01*
X-2547619Y-9761904D01*
X-2547619Y-9952380D01*
X-2595238Y-10047619D01*
X-2642857Y-10095238D01*
X-2738095Y-10142857D01*
X-3547619Y-10142857D01*
D11*
X-1250000Y-15000000D02*
X-1250000Y-12800000D01*
X-5450000Y-15000000D02*
X-1250000Y-15000000D01*
X-5450000Y-12800000D02*
X-5450000Y-15000000D01*
X-1250000Y-12800000D02*
X-5450000Y-12800000D01*
X-5000000Y-12800000D02*
X-5000000Y-11300000D01*
X-1700000Y-12800000D02*
X-1700000Y-11300000D01*
X-5000000Y-12800000D02*
X-1700000Y-12800000D01*
X-5000000Y-11300000D02*
X-1700000Y-11300000D01*
X-3250000Y-12250000D02*
X-3250000Y-11850000D01*
X-3250000Y-11850000D02*
X-3450000Y-12050000D01*
X-3450000Y-12050000D02*
X-3250000Y-12250000D01*
X-5450000Y-16000000D02*
X-3450000Y-16000000D01*
X-5450000Y-15000000D02*
X-3450000Y-15000000D01*
X-5450000Y-15000000D02*
X-5450000Y-16000000D01*
X-3450000Y-15000000D02*
X-3450000Y-16000000D01*
X-1250000Y-15000000D02*
X-3250000Y-15000000D01*
X-1250000Y-16000000D02*
X-3250000Y-16000000D01*
X-1250000Y-16000000D02*
X-1250000Y-15000000D01*
X-3250000Y-16000000D02*
X-3250000Y-15000000D01*
X2250000Y-9650000D02*
X750000Y-9650000D01*
X2250000Y-6350000D02*
X750000Y-6350000D01*
X2250000Y-9650000D02*
X2250000Y-6350000D01*
X750000Y-9650000D02*
X750000Y-6350000D01*
X1700000Y-7900000D02*
X1300000Y-7900000D01*
X1300000Y-7900000D02*
X1500000Y-8100000D01*
X1500000Y-8100000D02*
X1700000Y-7900000D01*
X3750000Y-6350000D02*
X5250000Y-6350000D01*
X3750000Y-9650000D02*
X5250000Y-9650000D01*
X3750000Y-6350000D02*
X3750000Y-9650000D01*
X5250000Y-6350000D02*
X5250000Y-9650000D01*
X4300000Y-8100000D02*
X4700000Y-8100000D01*
X4700000Y-8100000D02*
X4500000Y-7900000D01*
X4500000Y-7900000D02*
X4300000Y-8100000D01*
X-5250000Y-6350000D02*
X-3750000Y-6350000D01*
X-5250000Y-9650000D02*
X-3750000Y-9650000D01*
X-5250000Y-6350000D02*
X-5250000Y-9650000D01*
X-3750000Y-6350000D02*
X-3750000Y-9650000D01*
X-4700000Y-8100000D02*
X-4300000Y-8100000D01*
X-4300000Y-8100000D02*
X-4500000Y-7900000D01*
X-4500000Y-7900000D02*
X-4700000Y-8100000D01*
X-750000Y-9650000D02*
X-2250000Y-9650000D01*
X-750000Y-6350000D02*
X-2250000Y-6350000D01*
X-750000Y-9650000D02*
X-750000Y-6350000D01*
X-2250000Y-9650000D02*
X-2250000Y-6350000D01*
X-1300000Y-7900000D02*
X-1700000Y-7900000D01*
X-1700000Y-7900000D02*
X-1500000Y-8100000D01*
X-1500000Y-8100000D02*
X-1300000Y-7900000D01*
X-750000Y-5650000D02*
X-2250000Y-5650000D01*
X-750000Y-2350000D02*
X-2250000Y-2350000D01*
X-750000Y-5650000D02*
X-750000Y-2350000D01*
X-2250000Y-5650000D02*
X-2250000Y-2350000D01*
X-1300000Y-3900000D02*
X-1700000Y-3900000D01*
X-1700000Y-3900000D02*
X-1500000Y-4100000D01*
X-1500000Y-4100000D02*
X-1300000Y-3900000D01*
X-3750000Y-5650000D02*
X-5250000Y-5650000D01*
X-3750000Y-2350000D02*
X-5250000Y-2350000D01*
X-3750000Y-5650000D02*
X-3750000Y-2350000D01*
X-5250000Y-5650000D02*
X-5250000Y-2350000D01*
X-4300000Y-3900000D02*
X-4700000Y-3900000D01*
X-4700000Y-3900000D02*
X-4500000Y-4100000D01*
X-4500000Y-4100000D02*
X-4300000Y-3900000D01*
D10*
X226190Y-13826190D02*
X226190Y-14302380D01*
X559523Y-13302380D02*
X226190Y-13826190D01*
X-107142Y-13302380D01*
X-964285Y-14302380D02*
X-392857Y-14302380D01*
X-678571Y-14302380D02*
X-678571Y-13302380D01*
X-583333Y-13445238D01*
X-488095Y-13540476D01*
X-392857Y-13588095D01*
X-33333Y-12552380D02*
X300000Y-12076190D01*
X538095Y-12552380D02*
X538095Y-11552380D01*
X157142Y-11552380D01*
X61904Y-11600000D01*
X14285Y-11647619D01*
X-33333Y-11742857D01*
X-33333Y-11885714D01*
X14285Y-11980952D01*
X61904Y-12028571D01*
X157142Y-12076190D01*
X538095Y-12076190D01*
X-890476Y-11885714D02*
X-890476Y-12552380D01*
X-652380Y-11504761D02*
X-414285Y-12219047D01*
X-1033333Y-12219047D01*
X-7766666Y-12852380D02*
X-7766666Y-13566666D01*
X-7719047Y-13709523D01*
X-7623809Y-13804761D01*
X-7480952Y-13852380D01*
X-7385714Y-13852380D01*
X-8242857Y-13852380D02*
X-8242857Y-12852380D01*
X-8623809Y-12852380D01*
X-8719047Y-12900000D01*
X-8766666Y-12947619D01*
X-8814285Y-13042857D01*
X-8814285Y-13185714D01*
X-8766666Y-13280952D01*
X-8719047Y-13328571D01*
X-8623809Y-13376190D01*
X-8242857Y-13376190D01*
X-9195238Y-12947619D02*
X-9242857Y-12900000D01*
X-9338095Y-12852380D01*
X-9576190Y-12852380D01*
X-9671428Y-12900000D01*
X-9719047Y-12947619D01*
X-9766666Y-13042857D01*
X-9766666Y-13138095D01*
X-9719047Y-13280952D01*
X-9147619Y-13852380D01*
X-9766666Y-13852380D01*
X-7866666Y-8752380D02*
X-7866666Y-9466666D01*
X-7819047Y-9609523D01*
X-7723809Y-9704761D01*
X-7580952Y-9752380D01*
X-7485714Y-9752380D01*
X-8342857Y-9752380D02*
X-8342857Y-8752380D01*
X-8723809Y-8752380D01*
X-8819047Y-8800000D01*
X-8866666Y-8847619D01*
X-8914285Y-8942857D01*
X-8914285Y-9085714D01*
X-8866666Y-9180952D01*
X-8819047Y-9228571D01*
X-8723809Y-9276190D01*
X-8342857Y-9276190D01*
X-9866666Y-9752380D02*
X-9295238Y-9752380D01*
X-9580952Y-9752380D02*
X-9580952Y-8752380D01*
X-9485714Y-8895238D01*
X-9390476Y-8990476D01*
X-9295238Y-9038095D01*
X-4283333Y-17157142D02*
X-4235714Y-17204761D01*
X-4092857Y-17252380D01*
X-3997619Y-17252380D01*
X-3854761Y-17204761D01*
X-3759523Y-17109523D01*
X-3711904Y-17014285D01*
X-3664285Y-16823809D01*
X-3664285Y-16680952D01*
X-3711904Y-16490476D01*
X-3759523Y-16395238D01*
X-3854761Y-16300000D01*
X-3997619Y-16252380D01*
X-4092857Y-16252380D01*
X-4235714Y-16300000D01*
X-4283333Y-16347619D01*
X-5188095Y-16252380D02*
X-4711904Y-16252380D01*
X-4664285Y-16728571D01*
X-4711904Y-16680952D01*
X-4807142Y-16633333D01*
X-5045238Y-16633333D01*
X-5140476Y-16680952D01*
X-5188095Y-16728571D01*
X-5235714Y-16823809D01*
X-5235714Y-17061904D01*
X-5188095Y-17157142D01*
X-5140476Y-17204761D01*
X-5045238Y-17252380D01*
X-4807142Y-17252380D01*
X-4711904Y-17204761D01*
X-4664285Y-17157142D01*
X-2083333Y-17157142D02*
X-2035714Y-17204761D01*
X-1892857Y-17252380D01*
X-1797619Y-17252380D01*
X-1654761Y-17204761D01*
X-1559523Y-17109523D01*
X-1511904Y-17014285D01*
X-1464285Y-16823809D01*
X-1464285Y-16680952D01*
X-1511904Y-16490476D01*
X-1559523Y-16395238D01*
X-1654761Y-16300000D01*
X-1797619Y-16252380D01*
X-1892857Y-16252380D01*
X-2035714Y-16300000D01*
X-2083333Y-16347619D01*
X-2940476Y-16585714D02*
X-2940476Y-17252380D01*
X-2702380Y-16204761D02*
X-2464285Y-16919047D01*
X-3083333Y-16919047D01*
X1666666Y-10902380D02*
X2000000Y-10426190D01*
X2238095Y-10902380D02*
X2238095Y-9902380D01*
X1857142Y-9902380D01*
X1761904Y-9950000D01*
X1714285Y-9997619D01*
X1666666Y-10092857D01*
X1666666Y-10235714D01*
X1714285Y-10330952D01*
X1761904Y-10378571D01*
X1857142Y-10426190D01*
X2238095Y-10426190D01*
X1333333Y-9902380D02*
X714285Y-9902380D01*
X1047619Y-10283333D01*
X904761Y-10283333D01*
X809523Y-10330952D01*
X761904Y-10378571D01*
X714285Y-10473809D01*
X714285Y-10711904D01*
X761904Y-10807142D01*
X809523Y-10854761D01*
X904761Y-10902380D01*
X1190476Y-10902380D01*
X1285714Y-10854761D01*
X1333333Y-10807142D01*
X4666666Y-10902380D02*
X5000000Y-10426190D01*
X5238095Y-10902380D02*
X5238095Y-9902380D01*
X4857142Y-9902380D01*
X4761904Y-9950000D01*
X4714285Y-9997619D01*
X4666666Y-10092857D01*
X4666666Y-10235714D01*
X4714285Y-10330952D01*
X4761904Y-10378571D01*
X4857142Y-10426190D01*
X5238095Y-10426190D01*
X4285714Y-9997619D02*
X4238095Y-9950000D01*
X4142857Y-9902380D01*
X3904761Y-9902380D01*
X3809523Y-9950000D01*
X3761904Y-9997619D01*
X3714285Y-10092857D01*
X3714285Y-10188095D01*
X3761904Y-10330952D01*
X4333333Y-10902380D01*
X3714285Y-10902380D01*
X-4333333Y-10902380D02*
X-3999999Y-10426190D01*
X-3761904Y-10902380D02*
X-3761904Y-9902380D01*
X-4142857Y-9902380D01*
X-4238095Y-9950000D01*
X-4285714Y-9997619D01*
X-4333333Y-10092857D01*
X-4333333Y-10235714D01*
X-4285714Y-10330952D01*
X-4238095Y-10378571D01*
X-4142857Y-10426190D01*
X-3761904Y-10426190D01*
X-5285714Y-10902380D02*
X-4714285Y-10902380D01*
X-4999999Y-10902380D02*
X-4999999Y-9902380D01*
X-4904761Y-10045238D01*
X-4809523Y-10140476D01*
X-4714285Y-10188095D01*
X-1333333Y-10807142D02*
X-1285714Y-10854761D01*
X-1142857Y-10902380D01*
X-1047619Y-10902380D01*
X-904761Y-10854761D01*
X-809523Y-10759523D01*
X-761904Y-10664285D01*
X-714285Y-10473809D01*
X-714285Y-10330952D01*
X-761904Y-10140476D01*
X-809523Y-10045238D01*
X-904761Y-9950000D01*
X-1047619Y-9902380D01*
X-1142857Y-9902380D01*
X-1285714Y-9950000D01*
X-1333333Y-9997619D01*
X-1666666Y-9902380D02*
X-2285714Y-9902380D01*
X-1952380Y-10283333D01*
X-2095238Y-10283333D01*
X-2190476Y-10330952D01*
X-2238095Y-10378571D01*
X-2285714Y-10473809D01*
X-2285714Y-10711904D01*
X-2238095Y-10807142D01*
X-2190476Y-10854761D01*
X-2095238Y-10902380D01*
X-1809523Y-10902380D01*
X-1714285Y-10854761D01*
X-1666666Y-10807142D01*
X-1333333Y-2007142D02*
X-1285714Y-2054761D01*
X-1142857Y-2102380D01*
X-1047619Y-2102380D01*
X-904761Y-2054761D01*
X-809523Y-1959523D01*
X-761904Y-1864285D01*
X-714285Y-1673809D01*
X-714285Y-1530952D01*
X-761904Y-1340476D01*
X-809523Y-1245238D01*
X-904761Y-1150000D01*
X-1047619Y-1102380D01*
X-1142857Y-1102380D01*
X-1285714Y-1150000D01*
X-1333333Y-1197619D01*
X-1714285Y-1197619D02*
X-1761904Y-1150000D01*
X-1857142Y-1102380D01*
X-2095238Y-1102380D01*
X-2190476Y-1150000D01*
X-2238095Y-1197619D01*
X-2285714Y-1292857D01*
X-2285714Y-1388095D01*
X-2238095Y-1530952D01*
X-1666666Y-2102380D01*
X-2285714Y-2102380D01*
X-4333333Y-2007142D02*
X-4285714Y-2054761D01*
X-4142857Y-2102380D01*
X-4047619Y-2102380D01*
X-3904761Y-2054761D01*
X-3809523Y-1959523D01*
X-3761904Y-1864285D01*
X-3714285Y-1673809D01*
X-3714285Y-1530952D01*
X-3761904Y-1340476D01*
X-3809523Y-1245238D01*
X-3904761Y-1150000D01*
X-4047619Y-1102380D01*
X-4142857Y-1102380D01*
X-4285714Y-1150000D01*
X-4333333Y-1197619D01*
X-5285714Y-2102380D02*
X-4714285Y-2102380D01*
X-4999999Y-2102380D02*
X-4999999Y-1102380D01*
X-4904761Y-1245238D01*
X-4809523Y-1340476D01*
X-4714285Y-1388095D01*
M02*
