G04 #@! TF.GenerationSoftware,KiCad,Pcbnew,(5.1.10-1-10_14)*
G04 #@! TF.CreationDate,2021-12-01T23:11:49+09:00*
G04 #@! TF.ProjectId,DIP-ESP32,4449502d-4553-4503-9332-2e6b69636164,V1.0*
G04 #@! TF.SameCoordinates,Original*
G04 #@! TF.FileFunction,Paste,Bot*
G04 #@! TF.FilePolarity,Positive*
%FSLAX46Y46*%
G04 Gerber Fmt 4.6, Leading zero omitted, Abs format (unit mm)*
G04 Created by KiCad (PCBNEW (5.1.10-1-10_14)) date 2021-12-01 23:11:49*
%MOMM*%
%LPD*%
G01*
G04 APERTURE LIST*
%ADD10R,1.200000X1.800000*%
G04 APERTURE END LIST*
D10*
X-4650000Y-13900000D03*
X-2050000Y-13900000D03*
G36*
G01*
X-4650000Y-12250000D02*
X-4650000Y-11850000D01*
G75*
G02*
X-4450000Y-11650000I200000J0D01*
G01*
X-3950000Y-11650000D01*
G75*
G02*
X-3750000Y-11850000I0J-200000D01*
G01*
X-3750000Y-12250000D01*
G75*
G02*
X-3950000Y-12450000I-200000J0D01*
G01*
X-4450000Y-12450000D01*
G75*
G02*
X-4650000Y-12250000I0J200000D01*
G01*
G37*
G36*
G01*
X-2950000Y-12250000D02*
X-2950000Y-11850000D01*
G75*
G02*
X-2750000Y-11650000I200000J0D01*
G01*
X-2250000Y-11650000D01*
G75*
G02*
X-2050000Y-11850000I0J-200000D01*
G01*
X-2050000Y-12250000D01*
G75*
G02*
X-2250000Y-12450000I-200000J0D01*
G01*
X-2750000Y-12450000D01*
G75*
G02*
X-2950000Y-12250000I0J200000D01*
G01*
G37*
G36*
G01*
X-5250000Y-15650000D02*
X-5250000Y-15350000D01*
G75*
G02*
X-5100000Y-15200000I150000J0D01*
G01*
X-4800000Y-15200000D01*
G75*
G02*
X-4650000Y-15350000I0J-150000D01*
G01*
X-4650000Y-15650000D01*
G75*
G02*
X-4800000Y-15800000I-150000J0D01*
G01*
X-5100000Y-15800000D01*
G75*
G02*
X-5250000Y-15650000I0J150000D01*
G01*
G37*
G36*
G01*
X-4250000Y-15650000D02*
X-4250000Y-15350000D01*
G75*
G02*
X-4100000Y-15200000I150000J0D01*
G01*
X-3800000Y-15200000D01*
G75*
G02*
X-3650000Y-15350000I0J-150000D01*
G01*
X-3650000Y-15650000D01*
G75*
G02*
X-3800000Y-15800000I-150000J0D01*
G01*
X-4100000Y-15800000D01*
G75*
G02*
X-4250000Y-15650000I0J150000D01*
G01*
G37*
G36*
G01*
X-1450000Y-15350000D02*
X-1450000Y-15650000D01*
G75*
G02*
X-1600000Y-15800000I-150000J0D01*
G01*
X-1900000Y-15800000D01*
G75*
G02*
X-2050000Y-15650000I0J150000D01*
G01*
X-2050000Y-15350000D01*
G75*
G02*
X-1900000Y-15200000I150000J0D01*
G01*
X-1600000Y-15200000D01*
G75*
G02*
X-1450000Y-15350000I0J-150000D01*
G01*
G37*
G36*
G01*
X-2450000Y-15350000D02*
X-2450000Y-15650000D01*
G75*
G02*
X-2600000Y-15800000I-150000J0D01*
G01*
X-2900000Y-15800000D01*
G75*
G02*
X-3050000Y-15650000I0J150000D01*
G01*
X-3050000Y-15350000D01*
G75*
G02*
X-2900000Y-15200000I150000J0D01*
G01*
X-2600000Y-15200000D01*
G75*
G02*
X-2450000Y-15350000I0J-150000D01*
G01*
G37*
G36*
G01*
X1700000Y-9300000D02*
X1300000Y-9300000D01*
G75*
G02*
X1100000Y-9100000I0J200000D01*
G01*
X1100000Y-8600000D01*
G75*
G02*
X1300000Y-8400000I200000J0D01*
G01*
X1700000Y-8400000D01*
G75*
G02*
X1900000Y-8600000I0J-200000D01*
G01*
X1900000Y-9100000D01*
G75*
G02*
X1700000Y-9300000I-200000J0D01*
G01*
G37*
G36*
G01*
X1700000Y-7600000D02*
X1300000Y-7600000D01*
G75*
G02*
X1100000Y-7400000I0J200000D01*
G01*
X1100000Y-6900000D01*
G75*
G02*
X1300000Y-6700000I200000J0D01*
G01*
X1700000Y-6700000D01*
G75*
G02*
X1900000Y-6900000I0J-200000D01*
G01*
X1900000Y-7400000D01*
G75*
G02*
X1700000Y-7600000I-200000J0D01*
G01*
G37*
G36*
G01*
X4300000Y-6700000D02*
X4700000Y-6700000D01*
G75*
G02*
X4900000Y-6900000I0J-200000D01*
G01*
X4900000Y-7400000D01*
G75*
G02*
X4700000Y-7600000I-200000J0D01*
G01*
X4300000Y-7600000D01*
G75*
G02*
X4100000Y-7400000I0J200000D01*
G01*
X4100000Y-6900000D01*
G75*
G02*
X4300000Y-6700000I200000J0D01*
G01*
G37*
G36*
G01*
X4300000Y-8400000D02*
X4700000Y-8400000D01*
G75*
G02*
X4900000Y-8600000I0J-200000D01*
G01*
X4900000Y-9100000D01*
G75*
G02*
X4700000Y-9300000I-200000J0D01*
G01*
X4300000Y-9300000D01*
G75*
G02*
X4100000Y-9100000I0J200000D01*
G01*
X4100000Y-8600000D01*
G75*
G02*
X4300000Y-8400000I200000J0D01*
G01*
G37*
G36*
G01*
X-4700000Y-6700000D02*
X-4300000Y-6700000D01*
G75*
G02*
X-4100000Y-6900000I0J-200000D01*
G01*
X-4100000Y-7400000D01*
G75*
G02*
X-4300000Y-7600000I-200000J0D01*
G01*
X-4700000Y-7600000D01*
G75*
G02*
X-4900000Y-7400000I0J200000D01*
G01*
X-4900000Y-6900000D01*
G75*
G02*
X-4700000Y-6700000I200000J0D01*
G01*
G37*
G36*
G01*
X-4700000Y-8400000D02*
X-4300000Y-8400000D01*
G75*
G02*
X-4100000Y-8600000I0J-200000D01*
G01*
X-4100000Y-9100000D01*
G75*
G02*
X-4300000Y-9300000I-200000J0D01*
G01*
X-4700000Y-9300000D01*
G75*
G02*
X-4900000Y-9100000I0J200000D01*
G01*
X-4900000Y-8600000D01*
G75*
G02*
X-4700000Y-8400000I200000J0D01*
G01*
G37*
G36*
G01*
X-1300000Y-9300000D02*
X-1700000Y-9300000D01*
G75*
G02*
X-1900000Y-9100000I0J200000D01*
G01*
X-1900000Y-8600000D01*
G75*
G02*
X-1700000Y-8400000I200000J0D01*
G01*
X-1300000Y-8400000D01*
G75*
G02*
X-1100000Y-8600000I0J-200000D01*
G01*
X-1100000Y-9100000D01*
G75*
G02*
X-1300000Y-9300000I-200000J0D01*
G01*
G37*
G36*
G01*
X-1300000Y-7600000D02*
X-1700000Y-7600000D01*
G75*
G02*
X-1900000Y-7400000I0J200000D01*
G01*
X-1900000Y-6900000D01*
G75*
G02*
X-1700000Y-6700000I200000J0D01*
G01*
X-1300000Y-6700000D01*
G75*
G02*
X-1100000Y-6900000I0J-200000D01*
G01*
X-1100000Y-7400000D01*
G75*
G02*
X-1300000Y-7600000I-200000J0D01*
G01*
G37*
G36*
G01*
X-1300000Y-5300000D02*
X-1700000Y-5300000D01*
G75*
G02*
X-1900000Y-5100000I0J200000D01*
G01*
X-1900000Y-4600000D01*
G75*
G02*
X-1700000Y-4400000I200000J0D01*
G01*
X-1300000Y-4400000D01*
G75*
G02*
X-1100000Y-4600000I0J-200000D01*
G01*
X-1100000Y-5100000D01*
G75*
G02*
X-1300000Y-5300000I-200000J0D01*
G01*
G37*
G36*
G01*
X-1300000Y-3600000D02*
X-1700000Y-3600000D01*
G75*
G02*
X-1900000Y-3400000I0J200000D01*
G01*
X-1900000Y-2900000D01*
G75*
G02*
X-1700000Y-2700000I200000J0D01*
G01*
X-1300000Y-2700000D01*
G75*
G02*
X-1100000Y-2900000I0J-200000D01*
G01*
X-1100000Y-3400000D01*
G75*
G02*
X-1300000Y-3600000I-200000J0D01*
G01*
G37*
G36*
G01*
X-4300000Y-5300000D02*
X-4700000Y-5300000D01*
G75*
G02*
X-4900000Y-5100000I0J200000D01*
G01*
X-4900000Y-4600000D01*
G75*
G02*
X-4700000Y-4400000I200000J0D01*
G01*
X-4300000Y-4400000D01*
G75*
G02*
X-4100000Y-4600000I0J-200000D01*
G01*
X-4100000Y-5100000D01*
G75*
G02*
X-4300000Y-5300000I-200000J0D01*
G01*
G37*
G36*
G01*
X-4300000Y-3600000D02*
X-4700000Y-3600000D01*
G75*
G02*
X-4900000Y-3400000I0J200000D01*
G01*
X-4900000Y-2900000D01*
G75*
G02*
X-4700000Y-2700000I200000J0D01*
G01*
X-4300000Y-2700000D01*
G75*
G02*
X-4100000Y-2900000I0J-200000D01*
G01*
X-4100000Y-3400000D01*
G75*
G02*
X-4300000Y-3600000I-200000J0D01*
G01*
G37*
M02*
